ISO-10303-21;
HEADER;
/* Generated by software containing ST-Developer
 * from STEP Tools, Inc. (www.steptools.com) 
 */

FILE_DESCRIPTION(
/* description */ (''),
/* implementation_level */ '2;1');

FILE_NAME(
/* name */ 'LASER CUT PART.step',
/* time_stamp */ '2026-05-26T15:58:44-07:00',
/* author */ (''),
/* organization */ (''),
/* preprocessor_version */ 'ST-DEVELOPER v20.1',
/* originating_system */ 'Autodesk Translation Framework v15.8.0.0',
/* authorisation */ '');

FILE_SCHEMA (('AUTOMOTIVE_DESIGN { 1 0 10303 214 3 1 1 }'));
ENDSEC;

DATA;
#10=MECHANICAL_DESIGN_GEOMETRIC_PRESENTATION_REPRESENTATION('',(#13),#1952);
#11=SHAPE_REPRESENTATION_RELATIONSHIP('SRR','None',#1959,#12);
#12=ADVANCED_BREP_SHAPE_REPRESENTATION('',(#14),#1951);
#13=STYLED_ITEM('',(#1969),#14);
#14=MANIFOLD_SOLID_BREP('Body1',#1036);
#15=B_SPLINE_SURFACE_WITH_KNOTS('',3,1,((#1709,#1710),(#1711,#1712),(#1713,
#1714),(#1715,#1716),(#1717,#1718),(#1719,#1720),(#1721,#1722),(#1723,#1724),
(#1725,#1726),(#1727,#1728),(#1729,#1730),(#1731,#1732)),.UNSPECIFIED.,
 .F.,.F.,.F.,(4,2,2,2,2,4),(2,2),(0.,0.117193342016078,0.234386684032156,
0.351580026048234,0.440140640039233,0.528701254030232),(0.,1.08),
 .UNSPECIFIED.);
#16=B_SPLINE_SURFACE_WITH_KNOTS('',3,1,((#1736,#1737),(#1738,#1739),(#1740,
#1741),(#1742,#1743),(#1744,#1745),(#1746,#1747),(#1748,#1749),(#1750,#1751),
(#1752,#1753),(#1754,#1755),(#1756,#1757),(#1758,#1759)),.UNSPECIFIED.,
 .F.,.F.,.F.,(4,2,2,2,2,4),(2,2),(0.,0.117193342016078,0.234386684032157,
0.351580026048235,0.440140640039234,0.528701254030233),(0.,1.08),
 .UNSPECIFIED.);
#17=B_SPLINE_SURFACE_WITH_KNOTS('',3,1,((#1761,#1762),(#1763,#1764),(#1765,
#1766),(#1767,#1768),(#1769,#1770),(#1771,#1772),(#1773,#1774),(#1775,#1776),
(#1777,#1778),(#1779,#1780),(#1781,#1782),(#1783,#1784)),.UNSPECIFIED.,
 .F.,.F.,.F.,(4,2,2,2,2,4),(2,2),(0.,0.117193342016078,0.234386684032156,
0.351580026048234,0.440140640039233,0.528701254030232),(0.,1.08),
 .UNSPECIFIED.);
#18=B_SPLINE_SURFACE_WITH_KNOTS('',3,1,((#1789,#1790),(#1791,#1792),(#1793,
#1794),(#1795,#1796),(#1797,#1798),(#1799,#1800),(#1801,#1802),(#1803,#1804),
(#1805,#1806),(#1807,#1808),(#1809,#1810),(#1811,#1812)),.UNSPECIFIED.,
 .F.,.F.,.F.,(4,2,2,2,2,4),(2,2),(0.,0.117193342016078,0.234386684032157,
0.351580026048235,0.440140640039234,0.528701254030233),(0.,1.08),
 .UNSPECIFIED.);
#19=B_SPLINE_SURFACE_WITH_KNOTS('',3,1,((#1815,#1816),(#1817,#1818),(#1819,
#1820),(#1821,#1822),(#1823,#1824),(#1825,#1826),(#1827,#1828),(#1829,#1830),
(#1831,#1832),(#1833,#1834),(#1835,#1836),(#1837,#1838)),.UNSPECIFIED.,
 .F.,.F.,.F.,(4,2,2,2,2,4),(2,2),(0.,0.117193342016078,0.234386684032156,
0.351580026048234,0.440140640039233,0.528701254030232),(0.,1.08),
 .UNSPECIFIED.);
#20=B_SPLINE_SURFACE_WITH_KNOTS('',3,1,((#1842,#1843),(#1844,#1845),(#1846,
#1847),(#1848,#1849),(#1850,#1851),(#1852,#1853),(#1854,#1855),(#1856,#1857),
(#1858,#1859),(#1860,#1861),(#1862,#1863),(#1864,#1865)),.UNSPECIFIED.,
 .F.,.F.,.F.,(4,2,2,2,2,4),(2,2),(0.,0.117193342016078,0.234386684032157,
0.351580026048235,0.440140640039233,0.528701254030232),(0.,1.08),
 .UNSPECIFIED.);
#21=B_SPLINE_SURFACE_WITH_KNOTS('',3,1,((#1869,#1870),(#1871,#1872),(#1873,
#1874),(#1875,#1876),(#1877,#1878),(#1879,#1880),(#1881,#1882),(#1883,#1884),
(#1885,#1886),(#1887,#1888),(#1889,#1890),(#1891,#1892)),.UNSPECIFIED.,
 .F.,.F.,.F.,(4,2,2,2,2,4),(2,2),(0.,0.117193342016078,0.234386684032156,
0.351580026048235,0.440140640039233,0.528701254030232),(0.,1.08),
 .UNSPECIFIED.);
#22=B_SPLINE_SURFACE_WITH_KNOTS('',3,1,((#1896,#1897),(#1898,#1899),(#1900,
#1901),(#1902,#1903),(#1904,#1905),(#1906,#1907),(#1908,#1909),(#1910,#1911),
(#1912,#1913),(#1914,#1915),(#1916,#1917),(#1918,#1919)),.UNSPECIFIED.,
 .F.,.F.,.F.,(4,2,2,2,2,4),(2,2),(0.,0.117193342016078,0.234386684032157,
0.351580026048235,0.440140640039233,0.528701254030232),(0.,1.08),
 .UNSPECIFIED.);
#23=FACE_BOUND('',#122,.T.);
#24=FACE_BOUND('',#123,.T.);
#25=FACE_BOUND('',#124,.T.);
#26=FACE_BOUND('',#125,.T.);
#27=FACE_BOUND('',#126,.T.);
#28=FACE_BOUND('',#127,.T.);
#29=FACE_BOUND('',#128,.T.);
#30=FACE_BOUND('',#138,.T.);
#31=FACE_BOUND('',#139,.T.);
#32=FACE_BOUND('',#144,.T.);
#33=FACE_BOUND('',#145,.T.);
#34=FACE_BOUND('',#151,.T.);
#35=FACE_BOUND('',#152,.T.);
#36=FACE_BOUND('',#153,.T.);
#37=FACE_BOUND('',#154,.T.);
#38=FACE_BOUND('',#155,.T.);
#39=FACE_BOUND('',#156,.T.);
#40=FACE_BOUND('',#157,.T.);
#41=PLANE('',#1053);
#42=PLANE('',#1054);
#43=PLANE('',#1086);
#44=PLANE('',#1089);
#45=PLANE('',#1093);
#46=PLANE('',#1097);
#47=PLANE('',#1100);
#48=PLANE('',#1103);
#49=PLANE('',#1104);
#50=PLANE('',#1116);
#51=PLANE('',#1133);
#52=PLANE('',#1135);
#53=PLANE('',#1138);
#54=PLANE('',#1140);
#55=PLANE('',#1141);
#56=PLANE('',#1143);
#57=PLANE('',#1145);
#58=PLANE('',#1149);
#59=PLANE('',#1152);
#60=PLANE('',#1155);
#61=PLANE('',#1156);
#62=PLANE('',#1159);
#63=PLANE('',#1160);
#64=FACE_OUTER_BOUND('',#119,.T.);
#65=FACE_OUTER_BOUND('',#120,.T.);
#66=FACE_OUTER_BOUND('',#121,.T.);
#67=FACE_OUTER_BOUND('',#129,.T.);
#68=FACE_OUTER_BOUND('',#130,.T.);
#69=FACE_OUTER_BOUND('',#131,.T.);
#70=FACE_OUTER_BOUND('',#132,.T.);
#71=FACE_OUTER_BOUND('',#133,.T.);
#72=FACE_OUTER_BOUND('',#134,.T.);
#73=FACE_OUTER_BOUND('',#135,.T.);
#74=FACE_OUTER_BOUND('',#136,.T.);
#75=FACE_OUTER_BOUND('',#137,.T.);
#76=FACE_OUTER_BOUND('',#140,.T.);
#77=FACE_OUTER_BOUND('',#141,.T.);
#78=FACE_OUTER_BOUND('',#142,.T.);
#79=FACE_OUTER_BOUND('',#143,.T.);
#80=FACE_OUTER_BOUND('',#146,.T.);
#81=FACE_OUTER_BOUND('',#147,.T.);
#82=FACE_OUTER_BOUND('',#148,.T.);
#83=FACE_OUTER_BOUND('',#149,.T.);
#84=FACE_OUTER_BOUND('',#150,.T.);
#85=FACE_OUTER_BOUND('',#158,.T.);
#86=FACE_OUTER_BOUND('',#159,.T.);
#87=FACE_OUTER_BOUND('',#160,.T.);
#88=FACE_OUTER_BOUND('',#161,.T.);
#89=FACE_OUTER_BOUND('',#162,.T.);
#90=FACE_OUTER_BOUND('',#163,.T.);
#91=FACE_OUTER_BOUND('',#164,.T.);
#92=FACE_OUTER_BOUND('',#165,.T.);
#93=FACE_OUTER_BOUND('',#166,.T.);
#94=FACE_OUTER_BOUND('',#167,.T.);
#95=FACE_OUTER_BOUND('',#168,.T.);
#96=FACE_OUTER_BOUND('',#169,.T.);
#97=FACE_OUTER_BOUND('',#170,.T.);
#98=FACE_OUTER_BOUND('',#171,.T.);
#99=FACE_OUTER_BOUND('',#172,.T.);
#100=FACE_OUTER_BOUND('',#173,.T.);
#101=FACE_OUTER_BOUND('',#174,.T.);
#102=FACE_OUTER_BOUND('',#175,.T.);
#103=FACE_OUTER_BOUND('',#176,.T.);
#104=FACE_OUTER_BOUND('',#177,.T.);
#105=FACE_OUTER_BOUND('',#178,.T.);
#106=FACE_OUTER_BOUND('',#179,.T.);
#107=FACE_OUTER_BOUND('',#180,.T.);
#108=FACE_OUTER_BOUND('',#181,.T.);
#109=FACE_OUTER_BOUND('',#182,.T.);
#110=FACE_OUTER_BOUND('',#183,.T.);
#111=FACE_OUTER_BOUND('',#184,.T.);
#112=FACE_OUTER_BOUND('',#185,.T.);
#113=FACE_OUTER_BOUND('',#186,.T.);
#114=FACE_OUTER_BOUND('',#187,.T.);
#115=FACE_OUTER_BOUND('',#188,.T.);
#116=FACE_OUTER_BOUND('',#189,.T.);
#117=FACE_OUTER_BOUND('',#190,.T.);
#118=FACE_OUTER_BOUND('',#191,.T.);
#119=EDGE_LOOP('',(#663,#664,#665,#666));
#120=EDGE_LOOP('',(#667,#668,#669,#670));
#121=EDGE_LOOP('',(#671,#672,#673,#674,#675,#676,#677,#678,#679,#680,#681,
#682,#683));
#122=EDGE_LOOP('',(#684));
#123=EDGE_LOOP('',(#685));
#124=EDGE_LOOP('',(#686,#687,#688,#689,#690,#691,#692,#693,#694,#695,#696,
#697,#698,#699,#700,#701));
#125=EDGE_LOOP('',(#702));
#126=EDGE_LOOP('',(#703));
#127=EDGE_LOOP('',(#704));
#128=EDGE_LOOP('',(#705));
#129=EDGE_LOOP('',(#706,#707,#708,#709));
#130=EDGE_LOOP('',(#710,#711,#712,#713));
#131=EDGE_LOOP('',(#714,#715,#716,#717));
#132=EDGE_LOOP('',(#718,#719,#720,#721));
#133=EDGE_LOOP('',(#722,#723,#724,#725));
#134=EDGE_LOOP('',(#726,#727,#728,#729));
#135=EDGE_LOOP('',(#730,#731,#732,#733));
#136=EDGE_LOOP('',(#734,#735,#736,#737));
#137=EDGE_LOOP('',(#738,#739,#740,#741,#742,#743));
#138=EDGE_LOOP('',(#744));
#139=EDGE_LOOP('',(#745));
#140=EDGE_LOOP('',(#746,#747,#748,#749,#750,#751));
#141=EDGE_LOOP('',(#752,#753,#754,#755,#756,#757));
#142=EDGE_LOOP('',(#758,#759,#760,#761));
#143=EDGE_LOOP('',(#762,#763,#764,#765,#766,#767));
#144=EDGE_LOOP('',(#768));
#145=EDGE_LOOP('',(#769));
#146=EDGE_LOOP('',(#770,#771,#772,#773));
#147=EDGE_LOOP('',(#774,#775,#776,#777));
#148=EDGE_LOOP('',(#778,#779,#780,#781));
#149=EDGE_LOOP('',(#782,#783,#784,#785));
#150=EDGE_LOOP('',(#786,#787,#788,#789,#790,#791,#792,#793,#794,#795,#796,
#797,#798));
#151=EDGE_LOOP('',(#799));
#152=EDGE_LOOP('',(#800));
#153=EDGE_LOOP('',(#801));
#154=EDGE_LOOP('',(#802));
#155=EDGE_LOOP('',(#803,#804,#805,#806,#807,#808,#809,#810,#811,#812,#813,
#814,#815,#816,#817,#818));
#156=EDGE_LOOP('',(#819));
#157=EDGE_LOOP('',(#820));
#158=EDGE_LOOP('',(#821,#822,#823,#824));
#159=EDGE_LOOP('',(#825,#826,#827,#828));
#160=EDGE_LOOP('',(#829,#830,#831,#832));
#161=EDGE_LOOP('',(#833,#834,#835,#836));
#162=EDGE_LOOP('',(#837,#838,#839,#840));
#163=EDGE_LOOP('',(#841,#842,#843,#844));
#164=EDGE_LOOP('',(#845,#846,#847,#848));
#165=EDGE_LOOP('',(#849,#850,#851,#852));
#166=EDGE_LOOP('',(#853,#854,#855,#856));
#167=EDGE_LOOP('',(#857,#858,#859,#860));
#168=EDGE_LOOP('',(#861,#862,#863,#864));
#169=EDGE_LOOP('',(#865,#866,#867,#868));
#170=EDGE_LOOP('',(#869,#870,#871,#872));
#171=EDGE_LOOP('',(#873,#874,#875,#876));
#172=EDGE_LOOP('',(#877,#878,#879,#880));
#173=EDGE_LOOP('',(#881,#882,#883,#884));
#174=EDGE_LOOP('',(#885,#886,#887,#888));
#175=EDGE_LOOP('',(#889,#890,#891,#892));
#176=EDGE_LOOP('',(#893,#894,#895,#896));
#177=EDGE_LOOP('',(#897,#898,#899,#900));
#178=EDGE_LOOP('',(#901,#902,#903,#904));
#179=EDGE_LOOP('',(#905,#906,#907,#908));
#180=EDGE_LOOP('',(#909,#910,#911,#912));
#181=EDGE_LOOP('',(#913,#914,#915,#916));
#182=EDGE_LOOP('',(#917,#918,#919,#920));
#183=EDGE_LOOP('',(#921,#922,#923,#924));
#184=EDGE_LOOP('',(#925,#926,#927,#928));
#185=EDGE_LOOP('',(#929,#930,#931,#932));
#186=EDGE_LOOP('',(#933,#934,#935,#936));
#187=EDGE_LOOP('',(#937,#938,#939,#940));
#188=EDGE_LOOP('',(#941,#942,#943,#944));
#189=EDGE_LOOP('',(#945,#946,#947,#948));
#190=EDGE_LOOP('',(#949,#950,#951,#952));
#191=EDGE_LOOP('',(#953,#954,#955,#956));
#192=LINE('',#1474,#275);
#193=LINE('',#1477,#276);
#194=LINE('',#1480,#277);
#195=LINE('',#1482,#278);
#196=LINE('',#1483,#279);
#197=LINE('',#1486,#280);
#198=LINE('',#1494,#281);
#199=LINE('',#1498,#282);
#200=LINE('',#1500,#283);
#201=LINE('',#1502,#284);
#202=LINE('',#1504,#285);
#203=LINE('',#1516,#286);
#204=LINE('',#1524,#287);
#205=LINE('',#1532,#288);
#206=LINE('',#1540,#289);
#207=LINE('',#1552,#290);
#208=LINE('',#1555,#291);
#209=LINE('',#1559,#292);
#210=LINE('',#1563,#293);
#211=LINE('',#1566,#294);
#212=LINE('',#1569,#295);
#213=LINE('',#1572,#296);
#214=LINE('',#1573,#297);
#215=LINE('',#1577,#298);
#216=LINE('',#1579,#299);
#217=LINE('',#1585,#300);
#218=LINE('',#1588,#301);
#219=LINE('',#1591,#302);
#220=LINE('',#1593,#303);
#221=LINE('',#1595,#304);
#222=LINE('',#1598,#305);
#223=LINE('',#1605,#306);
#224=LINE('',#1609,#307);
#225=LINE('',#1613,#308);
#226=LINE('',#1616,#309);
#227=LINE('',#1618,#310);
#228=LINE('',#1622,#311);
#229=LINE('',#1623,#312);
#230=LINE('',#1628,#313);
#231=LINE('',#1629,#314);
#232=LINE('',#1636,#315);
#233=LINE('',#1640,#316);
#234=LINE('',#1644,#317);
#235=LINE('',#1648,#318);
#236=LINE('',#1651,#319);
#237=LINE('',#1653,#320);
#238=LINE('',#1654,#321);
#239=LINE('',#1655,#322);
#240=LINE('',#1662,#323);
#241=LINE('',#1670,#324);
#242=LINE('',#1678,#325);
#243=LINE('',#1686,#326);
#244=LINE('',#1693,#327);
#245=LINE('',#1695,#328);
#246=LINE('',#1698,#329);
#247=LINE('',#1700,#330);
#248=LINE('',#1702,#331);
#249=LINE('',#1704,#332);
#250=LINE('',#1707,#333);
#251=LINE('',#1708,#334);
#252=LINE('',#1733,#335);
#253=LINE('',#1735,#336);
#254=LINE('',#1760,#337);
#255=LINE('',#1785,#338);
#256=LINE('',#1786,#339);
#257=LINE('',#1788,#340);
#258=LINE('',#1814,#341);
#259=LINE('',#1839,#342);
#260=LINE('',#1841,#343);
#261=LINE('',#1866,#344);
#262=LINE('',#1868,#345);
#263=LINE('',#1893,#346);
#264=LINE('',#1895,#347);
#265=LINE('',#1920,#348);
#266=LINE('',#1925,#349);
#267=LINE('',#1929,#350);
#268=LINE('',#1931,#351);
#269=LINE('',#1934,#352);
#270=LINE('',#1935,#353);
#271=LINE('',#1938,#354);
#272=LINE('',#1941,#355);
#273=LINE('',#1942,#356);
#274=LINE('',#1944,#357);
#275=VECTOR('',#1167,10.);
#276=VECTOR('',#1170,10.);
#277=VECTOR('',#1173,10.);
#278=VECTOR('',#1174,10.);
#279=VECTOR('',#1175,10.);
#280=VECTOR('',#1178,10.);
#281=VECTOR('',#1185,10.);
#282=VECTOR('',#1188,10.);
#283=VECTOR('',#1189,10.);
#284=VECTOR('',#1190,10.);
#285=VECTOR('',#1191,10.);
#286=VECTOR('',#1202,10.);
#287=VECTOR('',#1209,10.);
#288=VECTOR('',#1216,10.);
#289=VECTOR('',#1223,10.);
#290=VECTOR('',#1236,10.);
#291=VECTOR('',#1239,10.);
#292=VECTOR('',#1244,10.);
#293=VECTOR('',#1249,10.);
#294=VECTOR('',#1252,10.);
#295=VECTOR('',#1255,10.);
#296=VECTOR('',#1258,10.);
#297=VECTOR('',#1259,10.);
#298=VECTOR('',#1264,10.);
#299=VECTOR('',#1267,10.);
#300=VECTOR('',#1272,10.);
#301=VECTOR('',#1275,10.);
#302=VECTOR('',#1278,10.);
#303=VECTOR('',#1279,10.);
#304=VECTOR('',#1280,4.572);
#305=VECTOR('',#1283,10.);
#306=VECTOR('',#1290,10.);
#307=VECTOR('',#1293,10.);
#308=VECTOR('',#1298,10.);
#309=VECTOR('',#1301,10.);
#310=VECTOR('',#1302,10.);
#311=VECTOR('',#1307,10.);
#312=VECTOR('',#1308,10.);
#313=VECTOR('',#1313,10.);
#314=VECTOR('',#1314,10.);
#315=VECTOR('',#1321,1.65);
#316=VECTOR('',#1326,1.65);
#317=VECTOR('',#1331,1.65);
#318=VECTOR('',#1336,1.65);
#319=VECTOR('',#1341,10.);
#320=VECTOR('',#1342,10.);
#321=VECTOR('',#1343,10.);
#322=VECTOR('',#1344,10.);
#323=VECTOR('',#1349,10.);
#324=VECTOR('',#1356,10.);
#325=VECTOR('',#1363,10.);
#326=VECTOR('',#1370,10.);
#327=VECTOR('',#1379,1.25);
#328=VECTOR('',#1382,1.25);
#329=VECTOR('',#1387,10.);
#330=VECTOR('',#1390,10.);
#331=VECTOR('',#1393,2.6);
#332=VECTOR('',#1396,2.6);
#333=VECTOR('',#1401,10.);
#334=VECTOR('',#1402,10.);
#335=VECTOR('',#1403,10.);
#336=VECTOR('',#1406,10.);
#337=VECTOR('',#1407,10.);
#338=VECTOR('',#1408,10.);
#339=VECTOR('',#1409,10.);
#340=VECTOR('',#1412,10.);
#341=VECTOR('',#1415,10.);
#342=VECTOR('',#1416,10.);
#343=VECTOR('',#1419,10.);
#344=VECTOR('',#1420,10.);
#345=VECTOR('',#1423,10.);
#346=VECTOR('',#1424,10.);
#347=VECTOR('',#1427,10.);
#348=VECTOR('',#1428,10.);
#349=VECTOR('',#1435,10.);
#350=VECTOR('',#1440,10.);
#351=VECTOR('',#1443,10.);
#352=VECTOR('',#1446,4.572);
#353=VECTOR('',#1447,10.);
#354=VECTOR('',#1450,10.);
#355=VECTOR('',#1455,4.572);
#356=VECTOR('',#1456,10.);
#357=VECTOR('',#1459,10.);
#358=CIRCLE('',#1051,3.);
#359=CIRCLE('',#1052,3.);
#360=CIRCLE('',#1055,3.);
#361=CIRCLE('',#1056,18.3575607385466);
#362=CIRCLE('',#1057,3.);
#363=CIRCLE('',#1058,3.);
#364=CIRCLE('',#1059,5.);
#365=CIRCLE('',#1060,1.25);
#366=CIRCLE('',#1061,1.25);
#367=CIRCLE('',#1062,4.);
#368=CIRCLE('',#1063,3.00000099788444);
#369=CIRCLE('',#1064,3.00000099788425);
#370=CIRCLE('',#1065,4.);
#371=CIRCLE('',#1066,3.0000009978843);
#372=CIRCLE('',#1067,3.00000099788425);
#373=CIRCLE('',#1068,3.99999999999999);
#374=CIRCLE('',#1069,3.0000009978843);
#375=CIRCLE('',#1070,3.00000099788425);
#376=CIRCLE('',#1071,3.99999999999999);
#377=CIRCLE('',#1072,3.00000099788444);
#378=CIRCLE('',#1073,3.00000099788423);
#379=CIRCLE('',#1074,1.65);
#380=CIRCLE('',#1075,1.65);
#381=CIRCLE('',#1076,1.65);
#382=CIRCLE('',#1077,1.65);
#383=CIRCLE('',#1079,3.);
#384=CIRCLE('',#1081,18.3575607385466);
#385=CIRCLE('',#1083,3.);
#386=CIRCLE('',#1085,3.);
#387=CIRCLE('',#1088,5.);
#388=CIRCLE('',#1091,5.);
#389=CIRCLE('',#1092,5.);
#390=CIRCLE('',#1094,5.);
#391=CIRCLE('',#1095,2.6);
#392=CIRCLE('',#1096,2.6);
#393=CIRCLE('',#1098,6.34999999999999);
#394=CIRCLE('',#1099,3.17499999999999);
#395=CIRCLE('',#1101,6.35);
#396=CIRCLE('',#1102,3.17499999999999);
#397=CIRCLE('',#1105,5.);
#398=CIRCLE('',#1106,2.6);
#399=CIRCLE('',#1107,2.6);
#400=CIRCLE('',#1109,1.65);
#401=CIRCLE('',#1111,1.65);
#402=CIRCLE('',#1113,1.65);
#403=CIRCLE('',#1115,1.65);
#404=CIRCLE('',#1117,4.);
#405=CIRCLE('',#1118,3.00000099788424);
#406=CIRCLE('',#1119,3.00000099788443);
#407=CIRCLE('',#1120,3.99999999999999);
#408=CIRCLE('',#1121,3.00000099788426);
#409=CIRCLE('',#1122,3.0000009978843);
#410=CIRCLE('',#1123,3.99999999999999);
#411=CIRCLE('',#1124,3.00000099788426);
#412=CIRCLE('',#1125,3.0000009978843);
#413=CIRCLE('',#1126,4.);
#414=CIRCLE('',#1127,3.00000099788425);
#415=CIRCLE('',#1128,3.00000099788443);
#416=CIRCLE('',#1129,1.25);
#417=CIRCLE('',#1130,1.25);
#418=CIRCLE('',#1148,6.34999999999999);
#419=CIRCLE('',#1150,3.175);
#420=CIRCLE('',#1154,6.35);
#421=CIRCLE('',#1157,3.175);
#422=VERTEX_POINT('',#1470);
#423=VERTEX_POINT('',#1471);
#424=VERTEX_POINT('',#1473);
#425=VERTEX_POINT('',#1475);
#426=VERTEX_POINT('',#1479);
#427=VERTEX_POINT('',#1481);
#428=VERTEX_POINT('',#1485);
#429=VERTEX_POINT('',#1487);
#430=VERTEX_POINT('',#1489);
#431=VERTEX_POINT('',#1491);
#432=VERTEX_POINT('',#1493);
#433=VERTEX_POINT('',#1495);
#434=VERTEX_POINT('',#1497);
#435=VERTEX_POINT('',#1499);
#436=VERTEX_POINT('',#1501);
#437=VERTEX_POINT('',#1503);
#438=VERTEX_POINT('',#1506);
#439=VERTEX_POINT('',#1508);
#440=VERTEX_POINT('',#1510);
#441=VERTEX_POINT('',#1511);
#442=VERTEX_POINT('',#1513);
#443=VERTEX_POINT('',#1515);
#444=VERTEX_POINT('',#1517);
#445=VERTEX_POINT('',#1519);
#446=VERTEX_POINT('',#1521);
#447=VERTEX_POINT('',#1523);
#448=VERTEX_POINT('',#1525);
#449=VERTEX_POINT('',#1527);
#450=VERTEX_POINT('',#1529);
#451=VERTEX_POINT('',#1531);
#452=VERTEX_POINT('',#1533);
#453=VERTEX_POINT('',#1535);
#454=VERTEX_POINT('',#1537);
#455=VERTEX_POINT('',#1539);
#456=VERTEX_POINT('',#1542);
#457=VERTEX_POINT('',#1544);
#458=VERTEX_POINT('',#1546);
#459=VERTEX_POINT('',#1548);
#460=VERTEX_POINT('',#1551);
#461=VERTEX_POINT('',#1553);
#462=VERTEX_POINT('',#1557);
#463=VERTEX_POINT('',#1561);
#464=VERTEX_POINT('',#1565);
#465=VERTEX_POINT('',#1567);
#466=VERTEX_POINT('',#1571);
#467=VERTEX_POINT('',#1575);
#468=VERTEX_POINT('',#1581);
#469=VERTEX_POINT('',#1582);
#470=VERTEX_POINT('',#1584);
#471=VERTEX_POINT('',#1586);
#472=VERTEX_POINT('',#1590);
#473=VERTEX_POINT('',#1592);
#474=VERTEX_POINT('',#1594);
#475=VERTEX_POINT('',#1596);
#476=VERTEX_POINT('',#1599);
#477=VERTEX_POINT('',#1601);
#478=VERTEX_POINT('',#1604);
#479=VERTEX_POINT('',#1606);
#480=VERTEX_POINT('',#1608);
#481=VERTEX_POINT('',#1612);
#482=VERTEX_POINT('',#1614);
#483=VERTEX_POINT('',#1617);
#484=VERTEX_POINT('',#1621);
#485=VERTEX_POINT('',#1625);
#486=VERTEX_POINT('',#1627);
#487=VERTEX_POINT('',#1630);
#488=VERTEX_POINT('',#1632);
#489=VERTEX_POINT('',#1635);
#490=VERTEX_POINT('',#1639);
#491=VERTEX_POINT('',#1643);
#492=VERTEX_POINT('',#1647);
#493=VERTEX_POINT('',#1652);
#494=VERTEX_POINT('',#1656);
#495=VERTEX_POINT('',#1657);
#496=VERTEX_POINT('',#1659);
#497=VERTEX_POINT('',#1661);
#498=VERTEX_POINT('',#1663);
#499=VERTEX_POINT('',#1665);
#500=VERTEX_POINT('',#1667);
#501=VERTEX_POINT('',#1669);
#502=VERTEX_POINT('',#1671);
#503=VERTEX_POINT('',#1673);
#504=VERTEX_POINT('',#1675);
#505=VERTEX_POINT('',#1677);
#506=VERTEX_POINT('',#1679);
#507=VERTEX_POINT('',#1681);
#508=VERTEX_POINT('',#1683);
#509=VERTEX_POINT('',#1685);
#510=VERTEX_POINT('',#1688);
#511=VERTEX_POINT('',#1690);
#512=VERTEX_POINT('',#1923);
#513=VERTEX_POINT('',#1927);
#514=VERTEX_POINT('',#1933);
#515=VERTEX_POINT('',#1937);
#516=EDGE_CURVE('',#422,#423,#358,.T.);
#517=EDGE_CURVE('',#423,#424,#192,.T.);
#518=EDGE_CURVE('',#424,#425,#359,.T.);
#519=EDGE_CURVE('',#425,#422,#193,.T.);
#520=EDGE_CURVE('',#426,#425,#194,.T.);
#521=EDGE_CURVE('',#427,#426,#195,.T.);
#522=EDGE_CURVE('',#422,#427,#196,.F.);
#523=EDGE_CURVE('',#424,#428,#197,.T.);
#524=EDGE_CURVE('',#429,#428,#360,.T.);
#525=EDGE_CURVE('',#429,#430,#361,.T.);
#526=EDGE_CURVE('',#431,#430,#362,.T.);
#527=EDGE_CURVE('',#431,#432,#198,.T.);
#528=EDGE_CURVE('',#433,#432,#363,.T.);
#529=EDGE_CURVE('',#433,#434,#199,.T.);
#530=EDGE_CURVE('',#434,#435,#200,.T.);
#531=EDGE_CURVE('',#436,#435,#201,.T.);
#532=EDGE_CURVE('',#436,#437,#202,.T.);
#533=EDGE_CURVE('',#426,#437,#364,.T.);
#534=EDGE_CURVE('',#438,#438,#365,.T.);
#535=EDGE_CURVE('',#439,#439,#366,.T.);
#536=EDGE_CURVE('',#440,#441,#367,.T.);
#537=EDGE_CURVE('',#441,#442,#368,.T.);
#538=EDGE_CURVE('',#442,#443,#203,.T.);
#539=EDGE_CURVE('',#443,#444,#369,.T.);
#540=EDGE_CURVE('',#444,#445,#370,.T.);
#541=EDGE_CURVE('',#445,#446,#371,.T.);
#542=EDGE_CURVE('',#446,#447,#204,.T.);
#543=EDGE_CURVE('',#447,#448,#372,.T.);
#544=EDGE_CURVE('',#448,#449,#373,.T.);
#545=EDGE_CURVE('',#449,#450,#374,.T.);
#546=EDGE_CURVE('',#450,#451,#205,.T.);
#547=EDGE_CURVE('',#451,#452,#375,.T.);
#548=EDGE_CURVE('',#452,#453,#376,.T.);
#549=EDGE_CURVE('',#453,#454,#377,.T.);
#550=EDGE_CURVE('',#454,#455,#206,.T.);
#551=EDGE_CURVE('',#455,#440,#378,.T.);
#552=EDGE_CURVE('',#456,#456,#379,.T.);
#553=EDGE_CURVE('',#457,#457,#380,.T.);
#554=EDGE_CURVE('',#458,#458,#381,.T.);
#555=EDGE_CURVE('',#459,#459,#382,.T.);
#556=EDGE_CURVE('',#428,#460,#207,.T.);
#557=EDGE_CURVE('',#460,#461,#383,.T.);
#558=EDGE_CURVE('',#461,#429,#208,.T.);
#559=EDGE_CURVE('',#462,#461,#384,.T.);
#560=EDGE_CURVE('',#430,#462,#209,.T.);
#561=EDGE_CURVE('',#462,#463,#385,.T.);
#562=EDGE_CURVE('',#463,#431,#210,.T.);
#563=EDGE_CURVE('',#432,#464,#211,.T.);
#564=EDGE_CURVE('',#464,#465,#386,.T.);
#565=EDGE_CURVE('',#465,#433,#212,.T.);
#566=EDGE_CURVE('',#466,#465,#213,.T.);
#567=EDGE_CURVE('',#434,#466,#214,.T.);
#568=EDGE_CURVE('',#467,#427,#387,.T.);
#569=EDGE_CURVE('',#437,#467,#215,.T.);
#570=EDGE_CURVE('',#460,#423,#216,.F.);
#571=EDGE_CURVE('',#468,#469,#388,.T.);
#572=EDGE_CURVE('',#469,#470,#217,.T.);
#573=EDGE_CURVE('',#470,#471,#389,.T.);
#574=EDGE_CURVE('',#471,#468,#218,.T.);
#575=EDGE_CURVE('',#470,#472,#219,.F.);
#576=EDGE_CURVE('',#472,#473,#220,.T.);
#577=EDGE_CURVE('',#474,#473,#221,.T.);
#578=EDGE_CURVE('',#475,#474,#390,.T.);
#579=EDGE_CURVE('',#475,#471,#222,.T.);
#580=EDGE_CURVE('',#476,#476,#391,.T.);
#581=EDGE_CURVE('',#477,#477,#392,.T.);
#582=EDGE_CURVE('',#478,#469,#223,.F.);
#583=EDGE_CURVE('',#479,#478,#393,.F.);
#584=EDGE_CURVE('',#480,#479,#224,.T.);
#585=EDGE_CURVE('',#472,#480,#394,.F.);
#586=EDGE_CURVE('',#436,#481,#225,.T.);
#587=EDGE_CURVE('',#482,#436,#395,.F.);
#588=EDGE_CURVE('',#480,#482,#226,.F.);
#589=EDGE_CURVE('',#479,#483,#227,.T.);
#590=EDGE_CURVE('',#483,#481,#396,.T.);
#591=EDGE_CURVE('',#484,#475,#228,.T.);
#592=EDGE_CURVE('',#468,#484,#229,.T.);
#593=EDGE_CURVE('',#485,#484,#397,.T.);
#594=EDGE_CURVE('',#485,#486,#230,.T.);
#595=EDGE_CURVE('',#486,#478,#231,.T.);
#596=EDGE_CURVE('',#487,#487,#398,.T.);
#597=EDGE_CURVE('',#488,#488,#399,.T.);
#598=EDGE_CURVE('',#459,#489,#232,.T.);
#599=EDGE_CURVE('',#489,#489,#400,.T.);
#600=EDGE_CURVE('',#458,#490,#233,.T.);
#601=EDGE_CURVE('',#490,#490,#401,.T.);
#602=EDGE_CURVE('',#457,#491,#234,.T.);
#603=EDGE_CURVE('',#491,#491,#402,.T.);
#604=EDGE_CURVE('',#456,#492,#235,.T.);
#605=EDGE_CURVE('',#492,#492,#403,.T.);
#606=EDGE_CURVE('',#467,#481,#236,.F.);
#607=EDGE_CURVE('',#481,#493,#237,.T.);
#608=EDGE_CURVE('',#493,#466,#238,.T.);
#609=EDGE_CURVE('',#464,#463,#239,.F.);
#610=EDGE_CURVE('',#494,#495,#404,.T.);
#611=EDGE_CURVE('',#495,#496,#405,.T.);
#612=EDGE_CURVE('',#496,#497,#240,.T.);
#613=EDGE_CURVE('',#497,#498,#406,.T.);
#614=EDGE_CURVE('',#498,#499,#407,.T.);
#615=EDGE_CURVE('',#499,#500,#408,.T.);
#616=EDGE_CURVE('',#500,#501,#241,.T.);
#617=EDGE_CURVE('',#501,#502,#409,.T.);
#618=EDGE_CURVE('',#502,#503,#410,.T.);
#619=EDGE_CURVE('',#503,#504,#411,.T.);
#620=EDGE_CURVE('',#504,#505,#242,.T.);
#621=EDGE_CURVE('',#505,#506,#412,.T.);
#622=EDGE_CURVE('',#506,#507,#413,.T.);
#623=EDGE_CURVE('',#507,#508,#414,.T.);
#624=EDGE_CURVE('',#508,#509,#243,.T.);
#625=EDGE_CURVE('',#509,#494,#415,.T.);
#626=EDGE_CURVE('',#510,#510,#416,.T.);
#627=EDGE_CURVE('',#511,#511,#417,.T.);
#628=EDGE_CURVE('',#439,#511,#244,.T.);
#629=EDGE_CURVE('',#438,#510,#245,.T.);
#630=EDGE_CURVE('',#474,#485,#246,.T.);
#631=EDGE_CURVE('',#473,#486,#247,.T.);
#632=EDGE_CURVE('',#477,#488,#248,.T.);
#633=EDGE_CURVE('',#476,#487,#249,.T.);
#634=EDGE_CURVE('',#449,#502,#250,.T.);
#635=EDGE_CURVE('',#448,#503,#251,.T.);
#636=EDGE_CURVE('',#447,#504,#252,.T.);
#637=EDGE_CURVE('',#446,#505,#253,.T.);
#638=EDGE_CURVE('',#445,#506,#254,.T.);
#639=EDGE_CURVE('',#452,#499,#255,.T.);
#640=EDGE_CURVE('',#451,#500,#256,.T.);
#641=EDGE_CURVE('',#450,#501,#257,.T.);
#642=EDGE_CURVE('',#444,#507,#258,.T.);
#643=EDGE_CURVE('',#443,#508,#259,.T.);
#644=EDGE_CURVE('',#442,#509,#260,.T.);
#645=EDGE_CURVE('',#441,#494,#261,.T.);
#646=EDGE_CURVE('',#440,#495,#262,.T.);
#647=EDGE_CURVE('',#455,#496,#263,.T.);
#648=EDGE_CURVE('',#454,#497,#264,.T.);
#649=EDGE_CURVE('',#453,#498,#265,.T.);
#650=EDGE_CURVE('',#486,#512,#418,.T.);
#651=EDGE_CURVE('',#479,#512,#266,.T.);
#652=EDGE_CURVE('',#473,#513,#419,.T.);
#653=EDGE_CURVE('',#512,#513,#267,.T.);
#654=EDGE_CURVE('',#513,#480,#268,.T.);
#655=EDGE_CURVE('',#512,#514,#269,.T.);
#656=EDGE_CURVE('',#514,#483,#270,.T.);
#657=EDGE_CURVE('',#482,#515,#271,.T.);
#658=EDGE_CURVE('',#435,#515,#420,.T.);
#659=EDGE_CURVE('',#515,#513,#272,.T.);
#660=EDGE_CURVE('',#515,#514,#273,.T.);
#661=EDGE_CURVE('',#435,#493,#274,.T.);
#662=EDGE_CURVE('',#514,#493,#421,.T.);
#663=ORIENTED_EDGE('',*,*,#516,.T.);
#664=ORIENTED_EDGE('',*,*,#517,.T.);
#665=ORIENTED_EDGE('',*,*,#518,.T.);
#666=ORIENTED_EDGE('',*,*,#519,.T.);
#667=ORIENTED_EDGE('',*,*,#519,.F.);
#668=ORIENTED_EDGE('',*,*,#520,.F.);
#669=ORIENTED_EDGE('',*,*,#521,.F.);
#670=ORIENTED_EDGE('',*,*,#522,.F.);
#671=ORIENTED_EDGE('',*,*,#518,.F.);
#672=ORIENTED_EDGE('',*,*,#523,.T.);
#673=ORIENTED_EDGE('',*,*,#524,.F.);
#674=ORIENTED_EDGE('',*,*,#525,.T.);
#675=ORIENTED_EDGE('',*,*,#526,.F.);
#676=ORIENTED_EDGE('',*,*,#527,.T.);
#677=ORIENTED_EDGE('',*,*,#528,.F.);
#678=ORIENTED_EDGE('',*,*,#529,.T.);
#679=ORIENTED_EDGE('',*,*,#530,.T.);
#680=ORIENTED_EDGE('',*,*,#531,.F.);
#681=ORIENTED_EDGE('',*,*,#532,.T.);
#682=ORIENTED_EDGE('',*,*,#533,.F.);
#683=ORIENTED_EDGE('',*,*,#520,.T.);
#684=ORIENTED_EDGE('',*,*,#534,.T.);
#685=ORIENTED_EDGE('',*,*,#535,.T.);
#686=ORIENTED_EDGE('',*,*,#536,.T.);
#687=ORIENTED_EDGE('',*,*,#537,.T.);
#688=ORIENTED_EDGE('',*,*,#538,.T.);
#689=ORIENTED_EDGE('',*,*,#539,.T.);
#690=ORIENTED_EDGE('',*,*,#540,.T.);
#691=ORIENTED_EDGE('',*,*,#541,.T.);
#692=ORIENTED_EDGE('',*,*,#542,.T.);
#693=ORIENTED_EDGE('',*,*,#543,.T.);
#694=ORIENTED_EDGE('',*,*,#544,.T.);
#695=ORIENTED_EDGE('',*,*,#545,.T.);
#696=ORIENTED_EDGE('',*,*,#546,.T.);
#697=ORIENTED_EDGE('',*,*,#547,.T.);
#698=ORIENTED_EDGE('',*,*,#548,.T.);
#699=ORIENTED_EDGE('',*,*,#549,.T.);
#700=ORIENTED_EDGE('',*,*,#550,.T.);
#701=ORIENTED_EDGE('',*,*,#551,.T.);
#702=ORIENTED_EDGE('',*,*,#552,.T.);
#703=ORIENTED_EDGE('',*,*,#553,.T.);
#704=ORIENTED_EDGE('',*,*,#554,.T.);
#705=ORIENTED_EDGE('',*,*,#555,.T.);
#706=ORIENTED_EDGE('',*,*,#524,.T.);
#707=ORIENTED_EDGE('',*,*,#556,.T.);
#708=ORIENTED_EDGE('',*,*,#557,.T.);
#709=ORIENTED_EDGE('',*,*,#558,.T.);
#710=ORIENTED_EDGE('',*,*,#558,.F.);
#711=ORIENTED_EDGE('',*,*,#559,.F.);
#712=ORIENTED_EDGE('',*,*,#560,.F.);
#713=ORIENTED_EDGE('',*,*,#525,.F.);
#714=ORIENTED_EDGE('',*,*,#561,.T.);
#715=ORIENTED_EDGE('',*,*,#562,.T.);
#716=ORIENTED_EDGE('',*,*,#526,.T.);
#717=ORIENTED_EDGE('',*,*,#560,.T.);
#718=ORIENTED_EDGE('',*,*,#528,.T.);
#719=ORIENTED_EDGE('',*,*,#563,.T.);
#720=ORIENTED_EDGE('',*,*,#564,.T.);
#721=ORIENTED_EDGE('',*,*,#565,.T.);
#722=ORIENTED_EDGE('',*,*,#565,.F.);
#723=ORIENTED_EDGE('',*,*,#566,.F.);
#724=ORIENTED_EDGE('',*,*,#567,.F.);
#725=ORIENTED_EDGE('',*,*,#529,.F.);
#726=ORIENTED_EDGE('',*,*,#568,.T.);
#727=ORIENTED_EDGE('',*,*,#521,.T.);
#728=ORIENTED_EDGE('',*,*,#533,.T.);
#729=ORIENTED_EDGE('',*,*,#569,.T.);
#730=ORIENTED_EDGE('',*,*,#517,.F.);
#731=ORIENTED_EDGE('',*,*,#570,.F.);
#732=ORIENTED_EDGE('',*,*,#556,.F.);
#733=ORIENTED_EDGE('',*,*,#523,.F.);
#734=ORIENTED_EDGE('',*,*,#571,.T.);
#735=ORIENTED_EDGE('',*,*,#572,.T.);
#736=ORIENTED_EDGE('',*,*,#573,.T.);
#737=ORIENTED_EDGE('',*,*,#574,.T.);
#738=ORIENTED_EDGE('',*,*,#573,.F.);
#739=ORIENTED_EDGE('',*,*,#575,.T.);
#740=ORIENTED_EDGE('',*,*,#576,.T.);
#741=ORIENTED_EDGE('',*,*,#577,.F.);
#742=ORIENTED_EDGE('',*,*,#578,.F.);
#743=ORIENTED_EDGE('',*,*,#579,.T.);
#744=ORIENTED_EDGE('',*,*,#580,.T.);
#745=ORIENTED_EDGE('',*,*,#581,.T.);
#746=ORIENTED_EDGE('',*,*,#572,.F.);
#747=ORIENTED_EDGE('',*,*,#582,.F.);
#748=ORIENTED_EDGE('',*,*,#583,.F.);
#749=ORIENTED_EDGE('',*,*,#584,.F.);
#750=ORIENTED_EDGE('',*,*,#585,.F.);
#751=ORIENTED_EDGE('',*,*,#575,.F.);
#752=ORIENTED_EDGE('',*,*,#586,.F.);
#753=ORIENTED_EDGE('',*,*,#587,.F.);
#754=ORIENTED_EDGE('',*,*,#588,.F.);
#755=ORIENTED_EDGE('',*,*,#584,.T.);
#756=ORIENTED_EDGE('',*,*,#589,.T.);
#757=ORIENTED_EDGE('',*,*,#590,.T.);
#758=ORIENTED_EDGE('',*,*,#574,.F.);
#759=ORIENTED_EDGE('',*,*,#579,.F.);
#760=ORIENTED_EDGE('',*,*,#591,.F.);
#761=ORIENTED_EDGE('',*,*,#592,.F.);
#762=ORIENTED_EDGE('',*,*,#571,.F.);
#763=ORIENTED_EDGE('',*,*,#592,.T.);
#764=ORIENTED_EDGE('',*,*,#593,.F.);
#765=ORIENTED_EDGE('',*,*,#594,.T.);
#766=ORIENTED_EDGE('',*,*,#595,.T.);
#767=ORIENTED_EDGE('',*,*,#582,.T.);
#768=ORIENTED_EDGE('',*,*,#596,.T.);
#769=ORIENTED_EDGE('',*,*,#597,.T.);
#770=ORIENTED_EDGE('',*,*,#555,.F.);
#771=ORIENTED_EDGE('',*,*,#598,.T.);
#772=ORIENTED_EDGE('',*,*,#599,.F.);
#773=ORIENTED_EDGE('',*,*,#598,.F.);
#774=ORIENTED_EDGE('',*,*,#554,.F.);
#775=ORIENTED_EDGE('',*,*,#600,.T.);
#776=ORIENTED_EDGE('',*,*,#601,.F.);
#777=ORIENTED_EDGE('',*,*,#600,.F.);
#778=ORIENTED_EDGE('',*,*,#553,.F.);
#779=ORIENTED_EDGE('',*,*,#602,.T.);
#780=ORIENTED_EDGE('',*,*,#603,.F.);
#781=ORIENTED_EDGE('',*,*,#602,.F.);
#782=ORIENTED_EDGE('',*,*,#552,.F.);
#783=ORIENTED_EDGE('',*,*,#604,.T.);
#784=ORIENTED_EDGE('',*,*,#605,.F.);
#785=ORIENTED_EDGE('',*,*,#604,.F.);
#786=ORIENTED_EDGE('',*,*,#516,.F.);
#787=ORIENTED_EDGE('',*,*,#522,.T.);
#788=ORIENTED_EDGE('',*,*,#568,.F.);
#789=ORIENTED_EDGE('',*,*,#606,.T.);
#790=ORIENTED_EDGE('',*,*,#607,.T.);
#791=ORIENTED_EDGE('',*,*,#608,.T.);
#792=ORIENTED_EDGE('',*,*,#566,.T.);
#793=ORIENTED_EDGE('',*,*,#564,.F.);
#794=ORIENTED_EDGE('',*,*,#609,.T.);
#795=ORIENTED_EDGE('',*,*,#561,.F.);
#796=ORIENTED_EDGE('',*,*,#559,.T.);
#797=ORIENTED_EDGE('',*,*,#557,.F.);
#798=ORIENTED_EDGE('',*,*,#570,.T.);
#799=ORIENTED_EDGE('',*,*,#599,.T.);
#800=ORIENTED_EDGE('',*,*,#601,.T.);
#801=ORIENTED_EDGE('',*,*,#603,.T.);
#802=ORIENTED_EDGE('',*,*,#605,.T.);
#803=ORIENTED_EDGE('',*,*,#610,.T.);
#804=ORIENTED_EDGE('',*,*,#611,.T.);
#805=ORIENTED_EDGE('',*,*,#612,.T.);
#806=ORIENTED_EDGE('',*,*,#613,.T.);
#807=ORIENTED_EDGE('',*,*,#614,.T.);
#808=ORIENTED_EDGE('',*,*,#615,.T.);
#809=ORIENTED_EDGE('',*,*,#616,.T.);
#810=ORIENTED_EDGE('',*,*,#617,.T.);
#811=ORIENTED_EDGE('',*,*,#618,.T.);
#812=ORIENTED_EDGE('',*,*,#619,.T.);
#813=ORIENTED_EDGE('',*,*,#620,.T.);
#814=ORIENTED_EDGE('',*,*,#621,.T.);
#815=ORIENTED_EDGE('',*,*,#622,.T.);
#816=ORIENTED_EDGE('',*,*,#623,.T.);
#817=ORIENTED_EDGE('',*,*,#624,.T.);
#818=ORIENTED_EDGE('',*,*,#625,.T.);
#819=ORIENTED_EDGE('',*,*,#626,.T.);
#820=ORIENTED_EDGE('',*,*,#627,.T.);
#821=ORIENTED_EDGE('',*,*,#535,.F.);
#822=ORIENTED_EDGE('',*,*,#628,.T.);
#823=ORIENTED_EDGE('',*,*,#627,.F.);
#824=ORIENTED_EDGE('',*,*,#628,.F.);
#825=ORIENTED_EDGE('',*,*,#534,.F.);
#826=ORIENTED_EDGE('',*,*,#629,.T.);
#827=ORIENTED_EDGE('',*,*,#626,.F.);
#828=ORIENTED_EDGE('',*,*,#629,.F.);
#829=ORIENTED_EDGE('',*,*,#562,.F.);
#830=ORIENTED_EDGE('',*,*,#609,.F.);
#831=ORIENTED_EDGE('',*,*,#563,.F.);
#832=ORIENTED_EDGE('',*,*,#527,.F.);
#833=ORIENTED_EDGE('',*,*,#593,.T.);
#834=ORIENTED_EDGE('',*,*,#591,.T.);
#835=ORIENTED_EDGE('',*,*,#578,.T.);
#836=ORIENTED_EDGE('',*,*,#630,.T.);
#837=ORIENTED_EDGE('',*,*,#630,.F.);
#838=ORIENTED_EDGE('',*,*,#577,.T.);
#839=ORIENTED_EDGE('',*,*,#631,.T.);
#840=ORIENTED_EDGE('',*,*,#594,.F.);
#841=ORIENTED_EDGE('',*,*,#581,.F.);
#842=ORIENTED_EDGE('',*,*,#632,.T.);
#843=ORIENTED_EDGE('',*,*,#597,.F.);
#844=ORIENTED_EDGE('',*,*,#632,.F.);
#845=ORIENTED_EDGE('',*,*,#580,.F.);
#846=ORIENTED_EDGE('',*,*,#633,.T.);
#847=ORIENTED_EDGE('',*,*,#596,.F.);
#848=ORIENTED_EDGE('',*,*,#633,.F.);
#849=ORIENTED_EDGE('',*,*,#569,.F.);
#850=ORIENTED_EDGE('',*,*,#532,.F.);
#851=ORIENTED_EDGE('',*,*,#586,.T.);
#852=ORIENTED_EDGE('',*,*,#606,.F.);
#853=ORIENTED_EDGE('',*,*,#618,.F.);
#854=ORIENTED_EDGE('',*,*,#634,.F.);
#855=ORIENTED_EDGE('',*,*,#544,.F.);
#856=ORIENTED_EDGE('',*,*,#635,.T.);
#857=ORIENTED_EDGE('',*,*,#619,.F.);
#858=ORIENTED_EDGE('',*,*,#635,.F.);
#859=ORIENTED_EDGE('',*,*,#543,.F.);
#860=ORIENTED_EDGE('',*,*,#636,.T.);
#861=ORIENTED_EDGE('',*,*,#620,.F.);
#862=ORIENTED_EDGE('',*,*,#636,.F.);
#863=ORIENTED_EDGE('',*,*,#542,.F.);
#864=ORIENTED_EDGE('',*,*,#637,.T.);
#865=ORIENTED_EDGE('',*,*,#621,.F.);
#866=ORIENTED_EDGE('',*,*,#637,.F.);
#867=ORIENTED_EDGE('',*,*,#541,.F.);
#868=ORIENTED_EDGE('',*,*,#638,.T.);
#869=ORIENTED_EDGE('',*,*,#615,.F.);
#870=ORIENTED_EDGE('',*,*,#639,.F.);
#871=ORIENTED_EDGE('',*,*,#547,.F.);
#872=ORIENTED_EDGE('',*,*,#640,.T.);
#873=ORIENTED_EDGE('',*,*,#616,.F.);
#874=ORIENTED_EDGE('',*,*,#640,.F.);
#875=ORIENTED_EDGE('',*,*,#546,.F.);
#876=ORIENTED_EDGE('',*,*,#641,.T.);
#877=ORIENTED_EDGE('',*,*,#617,.F.);
#878=ORIENTED_EDGE('',*,*,#641,.F.);
#879=ORIENTED_EDGE('',*,*,#545,.F.);
#880=ORIENTED_EDGE('',*,*,#634,.T.);
#881=ORIENTED_EDGE('',*,*,#622,.F.);
#882=ORIENTED_EDGE('',*,*,#638,.F.);
#883=ORIENTED_EDGE('',*,*,#540,.F.);
#884=ORIENTED_EDGE('',*,*,#642,.T.);
#885=ORIENTED_EDGE('',*,*,#623,.F.);
#886=ORIENTED_EDGE('',*,*,#642,.F.);
#887=ORIENTED_EDGE('',*,*,#539,.F.);
#888=ORIENTED_EDGE('',*,*,#643,.T.);
#889=ORIENTED_EDGE('',*,*,#624,.F.);
#890=ORIENTED_EDGE('',*,*,#643,.F.);
#891=ORIENTED_EDGE('',*,*,#538,.F.);
#892=ORIENTED_EDGE('',*,*,#644,.T.);
#893=ORIENTED_EDGE('',*,*,#625,.F.);
#894=ORIENTED_EDGE('',*,*,#644,.F.);
#895=ORIENTED_EDGE('',*,*,#537,.F.);
#896=ORIENTED_EDGE('',*,*,#645,.T.);
#897=ORIENTED_EDGE('',*,*,#610,.F.);
#898=ORIENTED_EDGE('',*,*,#645,.F.);
#899=ORIENTED_EDGE('',*,*,#536,.F.);
#900=ORIENTED_EDGE('',*,*,#646,.T.);
#901=ORIENTED_EDGE('',*,*,#611,.F.);
#902=ORIENTED_EDGE('',*,*,#646,.F.);
#903=ORIENTED_EDGE('',*,*,#551,.F.);
#904=ORIENTED_EDGE('',*,*,#647,.T.);
#905=ORIENTED_EDGE('',*,*,#612,.F.);
#906=ORIENTED_EDGE('',*,*,#647,.F.);
#907=ORIENTED_EDGE('',*,*,#550,.F.);
#908=ORIENTED_EDGE('',*,*,#648,.T.);
#909=ORIENTED_EDGE('',*,*,#613,.F.);
#910=ORIENTED_EDGE('',*,*,#648,.F.);
#911=ORIENTED_EDGE('',*,*,#549,.F.);
#912=ORIENTED_EDGE('',*,*,#649,.T.);
#913=ORIENTED_EDGE('',*,*,#614,.F.);
#914=ORIENTED_EDGE('',*,*,#649,.F.);
#915=ORIENTED_EDGE('',*,*,#548,.F.);
#916=ORIENTED_EDGE('',*,*,#639,.T.);
#917=ORIENTED_EDGE('',*,*,#595,.F.);
#918=ORIENTED_EDGE('',*,*,#650,.T.);
#919=ORIENTED_EDGE('',*,*,#651,.F.);
#920=ORIENTED_EDGE('',*,*,#583,.T.);
#921=ORIENTED_EDGE('',*,*,#631,.F.);
#922=ORIENTED_EDGE('',*,*,#652,.T.);
#923=ORIENTED_EDGE('',*,*,#653,.F.);
#924=ORIENTED_EDGE('',*,*,#650,.F.);
#925=ORIENTED_EDGE('',*,*,#576,.F.);
#926=ORIENTED_EDGE('',*,*,#585,.T.);
#927=ORIENTED_EDGE('',*,*,#654,.F.);
#928=ORIENTED_EDGE('',*,*,#652,.F.);
#929=ORIENTED_EDGE('',*,*,#651,.T.);
#930=ORIENTED_EDGE('',*,*,#655,.T.);
#931=ORIENTED_EDGE('',*,*,#656,.T.);
#932=ORIENTED_EDGE('',*,*,#589,.F.);
#933=ORIENTED_EDGE('',*,*,#657,.F.);
#934=ORIENTED_EDGE('',*,*,#587,.T.);
#935=ORIENTED_EDGE('',*,*,#531,.T.);
#936=ORIENTED_EDGE('',*,*,#658,.T.);
#937=ORIENTED_EDGE('',*,*,#653,.T.);
#938=ORIENTED_EDGE('',*,*,#659,.F.);
#939=ORIENTED_EDGE('',*,*,#660,.T.);
#940=ORIENTED_EDGE('',*,*,#655,.F.);
#941=ORIENTED_EDGE('',*,*,#660,.F.);
#942=ORIENTED_EDGE('',*,*,#658,.F.);
#943=ORIENTED_EDGE('',*,*,#661,.T.);
#944=ORIENTED_EDGE('',*,*,#662,.F.);
#945=ORIENTED_EDGE('',*,*,#656,.F.);
#946=ORIENTED_EDGE('',*,*,#662,.T.);
#947=ORIENTED_EDGE('',*,*,#607,.F.);
#948=ORIENTED_EDGE('',*,*,#590,.F.);
#949=ORIENTED_EDGE('',*,*,#654,.T.);
#950=ORIENTED_EDGE('',*,*,#588,.T.);
#951=ORIENTED_EDGE('',*,*,#657,.T.);
#952=ORIENTED_EDGE('',*,*,#659,.T.);
#953=ORIENTED_EDGE('',*,*,#567,.T.);
#954=ORIENTED_EDGE('',*,*,#608,.F.);
#955=ORIENTED_EDGE('',*,*,#661,.F.);
#956=ORIENTED_EDGE('',*,*,#530,.F.);
#957=CYLINDRICAL_SURFACE('',#1050,3.);
#958=CYLINDRICAL_SURFACE('',#1078,3.);
#959=CYLINDRICAL_SURFACE('',#1080,18.3575607385466);
#960=CYLINDRICAL_SURFACE('',#1082,3.);
#961=CYLINDRICAL_SURFACE('',#1084,3.);
#962=CYLINDRICAL_SURFACE('',#1087,5.);
#963=CYLINDRICAL_SURFACE('',#1090,5.);
#964=CYLINDRICAL_SURFACE('',#1108,1.65);
#965=CYLINDRICAL_SURFACE('',#1110,1.65);
#966=CYLINDRICAL_SURFACE('',#1112,1.65);
#967=CYLINDRICAL_SURFACE('',#1114,1.65);
#968=CYLINDRICAL_SURFACE('',#1131,1.25);
#969=CYLINDRICAL_SURFACE('',#1132,1.25);
#970=CYLINDRICAL_SURFACE('',#1134,5.);
#971=CYLINDRICAL_SURFACE('',#1136,2.6);
#972=CYLINDRICAL_SURFACE('',#1137,2.6);
#973=CYLINDRICAL_SURFACE('',#1139,3.99999999999999);
#974=CYLINDRICAL_SURFACE('',#1142,4.);
#975=CYLINDRICAL_SURFACE('',#1144,4.);
#976=CYLINDRICAL_SURFACE('',#1146,3.99999999999999);
#977=CYLINDRICAL_SURFACE('',#1147,6.34999999999999);
#978=CYLINDRICAL_SURFACE('',#1151,3.17499999999999);
#979=CYLINDRICAL_SURFACE('',#1153,6.35);
#980=CYLINDRICAL_SURFACE('',#1158,3.17499999999999);
#981=ADVANCED_FACE('',(#64),#957,.T.);
#982=ADVANCED_FACE('',(#65),#41,.T.);
#983=ADVANCED_FACE('',(#66,#23,#24,#25,#26,#27,#28,#29),#42,.F.);
#984=ADVANCED_FACE('',(#67),#958,.T.);
#985=ADVANCED_FACE('',(#68),#959,.F.);
#986=ADVANCED_FACE('',(#69),#960,.T.);
#987=ADVANCED_FACE('',(#70),#961,.T.);
#988=ADVANCED_FACE('',(#71),#43,.T.);
#989=ADVANCED_FACE('',(#72),#962,.T.);
#990=ADVANCED_FACE('',(#73),#44,.T.);
#991=ADVANCED_FACE('',(#74),#963,.T.);
#992=ADVANCED_FACE('',(#75,#30,#31),#45,.T.);
#993=ADVANCED_FACE('',(#76),#46,.T.);
#994=ADVANCED_FACE('',(#77),#47,.T.);
#995=ADVANCED_FACE('',(#78),#48,.T.);
#996=ADVANCED_FACE('',(#79,#32,#33),#49,.T.);
#997=ADVANCED_FACE('',(#80),#964,.F.);
#998=ADVANCED_FACE('',(#81),#965,.F.);
#999=ADVANCED_FACE('',(#82),#966,.F.);
#1000=ADVANCED_FACE('',(#83),#967,.F.);
#1001=ADVANCED_FACE('',(#84,#34,#35,#36,#37,#38,#39,#40),#50,.T.);
#1002=ADVANCED_FACE('',(#85),#968,.F.);
#1003=ADVANCED_FACE('',(#86),#969,.F.);
#1004=ADVANCED_FACE('',(#87),#51,.T.);
#1005=ADVANCED_FACE('',(#88),#970,.T.);
#1006=ADVANCED_FACE('',(#89),#52,.T.);
#1007=ADVANCED_FACE('',(#90),#971,.F.);
#1008=ADVANCED_FACE('',(#91),#972,.F.);
#1009=ADVANCED_FACE('',(#92),#53,.T.);
#1010=ADVANCED_FACE('',(#93),#973,.T.);
#1011=ADVANCED_FACE('',(#94),#15,.F.);
#1012=ADVANCED_FACE('',(#95),#54,.F.);
#1013=ADVANCED_FACE('',(#96),#16,.F.);
#1014=ADVANCED_FACE('',(#97),#17,.F.);
#1015=ADVANCED_FACE('',(#98),#55,.F.);
#1016=ADVANCED_FACE('',(#99),#18,.F.);
#1017=ADVANCED_FACE('',(#100),#974,.T.);
#1018=ADVANCED_FACE('',(#101),#19,.F.);
#1019=ADVANCED_FACE('',(#102),#56,.F.);
#1020=ADVANCED_FACE('',(#103),#20,.F.);
#1021=ADVANCED_FACE('',(#104),#975,.T.);
#1022=ADVANCED_FACE('',(#105),#21,.F.);
#1023=ADVANCED_FACE('',(#106),#57,.F.);
#1024=ADVANCED_FACE('',(#107),#22,.F.);
#1025=ADVANCED_FACE('',(#108),#976,.T.);
#1026=ADVANCED_FACE('',(#109),#977,.T.);
#1027=ADVANCED_FACE('',(#110),#58,.T.);
#1028=ADVANCED_FACE('',(#111),#978,.F.);
#1029=ADVANCED_FACE('',(#112),#59,.T.);
#1030=ADVANCED_FACE('',(#113),#979,.T.);
#1031=ADVANCED_FACE('',(#114),#60,.T.);
#1032=ADVANCED_FACE('',(#115),#61,.T.);
#1033=ADVANCED_FACE('',(#116),#980,.F.);
#1034=ADVANCED_FACE('',(#117),#62,.T.);
#1035=ADVANCED_FACE('',(#118),#63,.T.);
#1036=CLOSED_SHELL('',(#981,#982,#983,#984,#985,#986,#987,#988,#989,#990,
#991,#992,#993,#994,#995,#996,#997,#998,#999,#1000,#1001,#1002,#1003,#1004,
#1005,#1006,#1007,#1008,#1009,#1010,#1011,#1012,#1013,#1014,#1015,#1016,
#1017,#1018,#1019,#1020,#1021,#1022,#1023,#1024,#1025,#1026,#1027,#1028,
#1029,#1030,#1031,#1032,#1033,#1034,#1035));
#1037=DERIVED_UNIT_ELEMENT(#1039,1.);
#1038=DERIVED_UNIT_ELEMENT(#1954,-3.);
#1039=(
MASS_UNIT()
NAMED_UNIT(*)
SI_UNIT(.KILO.,.GRAM.)
);
#1040=DERIVED_UNIT((#1037,#1038));
#1041=MEASURE_REPRESENTATION_ITEM('density measure',
POSITIVE_RATIO_MEASURE(7850.),#1040);
#1042=PROPERTY_DEFINITION_REPRESENTATION(#1047,#1044);
#1043=PROPERTY_DEFINITION_REPRESENTATION(#1048,#1045);
#1044=REPRESENTATION('material name',(#1046),#1951);
#1045=REPRESENTATION('density',(#1041),#1951);
#1046=DESCRIPTIVE_REPRESENTATION_ITEM('Steel','Steel');
#1047=PROPERTY_DEFINITION('material property','material name',#1961);
#1048=PROPERTY_DEFINITION('material property','density of part',#1961);
#1049=AXIS2_PLACEMENT_3D('',#1468,#1161,#1162);
#1050=AXIS2_PLACEMENT_3D('',#1469,#1163,#1164);
#1051=AXIS2_PLACEMENT_3D('',#1472,#1165,#1166);
#1052=AXIS2_PLACEMENT_3D('',#1476,#1168,#1169);
#1053=AXIS2_PLACEMENT_3D('',#1478,#1171,#1172);
#1054=AXIS2_PLACEMENT_3D('',#1484,#1176,#1177);
#1055=AXIS2_PLACEMENT_3D('',#1488,#1179,#1180);
#1056=AXIS2_PLACEMENT_3D('',#1490,#1181,#1182);
#1057=AXIS2_PLACEMENT_3D('',#1492,#1183,#1184);
#1058=AXIS2_PLACEMENT_3D('',#1496,#1186,#1187);
#1059=AXIS2_PLACEMENT_3D('',#1505,#1192,#1193);
#1060=AXIS2_PLACEMENT_3D('',#1507,#1194,#1195);
#1061=AXIS2_PLACEMENT_3D('',#1509,#1196,#1197);
#1062=AXIS2_PLACEMENT_3D('',#1512,#1198,#1199);
#1063=AXIS2_PLACEMENT_3D('',#1514,#1200,#1201);
#1064=AXIS2_PLACEMENT_3D('',#1518,#1203,#1204);
#1065=AXIS2_PLACEMENT_3D('',#1520,#1205,#1206);
#1066=AXIS2_PLACEMENT_3D('',#1522,#1207,#1208);
#1067=AXIS2_PLACEMENT_3D('',#1526,#1210,#1211);
#1068=AXIS2_PLACEMENT_3D('',#1528,#1212,#1213);
#1069=AXIS2_PLACEMENT_3D('',#1530,#1214,#1215);
#1070=AXIS2_PLACEMENT_3D('',#1534,#1217,#1218);
#1071=AXIS2_PLACEMENT_3D('',#1536,#1219,#1220);
#1072=AXIS2_PLACEMENT_3D('',#1538,#1221,#1222);
#1073=AXIS2_PLACEMENT_3D('',#1541,#1224,#1225);
#1074=AXIS2_PLACEMENT_3D('',#1543,#1226,#1227);
#1075=AXIS2_PLACEMENT_3D('',#1545,#1228,#1229);
#1076=AXIS2_PLACEMENT_3D('',#1547,#1230,#1231);
#1077=AXIS2_PLACEMENT_3D('',#1549,#1232,#1233);
#1078=AXIS2_PLACEMENT_3D('',#1550,#1234,#1235);
#1079=AXIS2_PLACEMENT_3D('',#1554,#1237,#1238);
#1080=AXIS2_PLACEMENT_3D('',#1556,#1240,#1241);
#1081=AXIS2_PLACEMENT_3D('',#1558,#1242,#1243);
#1082=AXIS2_PLACEMENT_3D('',#1560,#1245,#1246);
#1083=AXIS2_PLACEMENT_3D('',#1562,#1247,#1248);
#1084=AXIS2_PLACEMENT_3D('',#1564,#1250,#1251);
#1085=AXIS2_PLACEMENT_3D('',#1568,#1253,#1254);
#1086=AXIS2_PLACEMENT_3D('',#1570,#1256,#1257);
#1087=AXIS2_PLACEMENT_3D('',#1574,#1260,#1261);
#1088=AXIS2_PLACEMENT_3D('',#1576,#1262,#1263);
#1089=AXIS2_PLACEMENT_3D('',#1578,#1265,#1266);
#1090=AXIS2_PLACEMENT_3D('',#1580,#1268,#1269);
#1091=AXIS2_PLACEMENT_3D('',#1583,#1270,#1271);
#1092=AXIS2_PLACEMENT_3D('',#1587,#1273,#1274);
#1093=AXIS2_PLACEMENT_3D('',#1589,#1276,#1277);
#1094=AXIS2_PLACEMENT_3D('',#1597,#1281,#1282);
#1095=AXIS2_PLACEMENT_3D('',#1600,#1284,#1285);
#1096=AXIS2_PLACEMENT_3D('',#1602,#1286,#1287);
#1097=AXIS2_PLACEMENT_3D('',#1603,#1288,#1289);
#1098=AXIS2_PLACEMENT_3D('',#1607,#1291,#1292);
#1099=AXIS2_PLACEMENT_3D('',#1610,#1294,#1295);
#1100=AXIS2_PLACEMENT_3D('',#1611,#1296,#1297);
#1101=AXIS2_PLACEMENT_3D('',#1615,#1299,#1300);
#1102=AXIS2_PLACEMENT_3D('',#1619,#1303,#1304);
#1103=AXIS2_PLACEMENT_3D('',#1620,#1305,#1306);
#1104=AXIS2_PLACEMENT_3D('',#1624,#1309,#1310);
#1105=AXIS2_PLACEMENT_3D('',#1626,#1311,#1312);
#1106=AXIS2_PLACEMENT_3D('',#1631,#1315,#1316);
#1107=AXIS2_PLACEMENT_3D('',#1633,#1317,#1318);
#1108=AXIS2_PLACEMENT_3D('',#1634,#1319,#1320);
#1109=AXIS2_PLACEMENT_3D('',#1637,#1322,#1323);
#1110=AXIS2_PLACEMENT_3D('',#1638,#1324,#1325);
#1111=AXIS2_PLACEMENT_3D('',#1641,#1327,#1328);
#1112=AXIS2_PLACEMENT_3D('',#1642,#1329,#1330);
#1113=AXIS2_PLACEMENT_3D('',#1645,#1332,#1333);
#1114=AXIS2_PLACEMENT_3D('',#1646,#1334,#1335);
#1115=AXIS2_PLACEMENT_3D('',#1649,#1337,#1338);
#1116=AXIS2_PLACEMENT_3D('',#1650,#1339,#1340);
#1117=AXIS2_PLACEMENT_3D('',#1658,#1345,#1346);
#1118=AXIS2_PLACEMENT_3D('',#1660,#1347,#1348);
#1119=AXIS2_PLACEMENT_3D('',#1664,#1350,#1351);
#1120=AXIS2_PLACEMENT_3D('',#1666,#1352,#1353);
#1121=AXIS2_PLACEMENT_3D('',#1668,#1354,#1355);
#1122=AXIS2_PLACEMENT_3D('',#1672,#1357,#1358);
#1123=AXIS2_PLACEMENT_3D('',#1674,#1359,#1360);
#1124=AXIS2_PLACEMENT_3D('',#1676,#1361,#1362);
#1125=AXIS2_PLACEMENT_3D('',#1680,#1364,#1365);
#1126=AXIS2_PLACEMENT_3D('',#1682,#1366,#1367);
#1127=AXIS2_PLACEMENT_3D('',#1684,#1368,#1369);
#1128=AXIS2_PLACEMENT_3D('',#1687,#1371,#1372);
#1129=AXIS2_PLACEMENT_3D('',#1689,#1373,#1374);
#1130=AXIS2_PLACEMENT_3D('',#1691,#1375,#1376);
#1131=AXIS2_PLACEMENT_3D('',#1692,#1377,#1378);
#1132=AXIS2_PLACEMENT_3D('',#1694,#1380,#1381);
#1133=AXIS2_PLACEMENT_3D('',#1696,#1383,#1384);
#1134=AXIS2_PLACEMENT_3D('',#1697,#1385,#1386);
#1135=AXIS2_PLACEMENT_3D('',#1699,#1388,#1389);
#1136=AXIS2_PLACEMENT_3D('',#1701,#1391,#1392);
#1137=AXIS2_PLACEMENT_3D('',#1703,#1394,#1395);
#1138=AXIS2_PLACEMENT_3D('',#1705,#1397,#1398);
#1139=AXIS2_PLACEMENT_3D('',#1706,#1399,#1400);
#1140=AXIS2_PLACEMENT_3D('',#1734,#1404,#1405);
#1141=AXIS2_PLACEMENT_3D('',#1787,#1410,#1411);
#1142=AXIS2_PLACEMENT_3D('',#1813,#1413,#1414);
#1143=AXIS2_PLACEMENT_3D('',#1840,#1417,#1418);
#1144=AXIS2_PLACEMENT_3D('',#1867,#1421,#1422);
#1145=AXIS2_PLACEMENT_3D('',#1894,#1425,#1426);
#1146=AXIS2_PLACEMENT_3D('',#1921,#1429,#1430);
#1147=AXIS2_PLACEMENT_3D('',#1922,#1431,#1432);
#1148=AXIS2_PLACEMENT_3D('',#1924,#1433,#1434);
#1149=AXIS2_PLACEMENT_3D('',#1926,#1436,#1437);
#1150=AXIS2_PLACEMENT_3D('',#1928,#1438,#1439);
#1151=AXIS2_PLACEMENT_3D('',#1930,#1441,#1442);
#1152=AXIS2_PLACEMENT_3D('',#1932,#1444,#1445);
#1153=AXIS2_PLACEMENT_3D('',#1936,#1448,#1449);
#1154=AXIS2_PLACEMENT_3D('',#1939,#1451,#1452);
#1155=AXIS2_PLACEMENT_3D('',#1940,#1453,#1454);
#1156=AXIS2_PLACEMENT_3D('',#1943,#1457,#1458);
#1157=AXIS2_PLACEMENT_3D('',#1945,#1460,#1461);
#1158=AXIS2_PLACEMENT_3D('',#1946,#1462,#1463);
#1159=AXIS2_PLACEMENT_3D('',#1947,#1464,#1465);
#1160=AXIS2_PLACEMENT_3D('',#1948,#1466,#1467);
#1161=DIRECTION('axis',(0.,0.,1.));
#1162=DIRECTION('refdir',(1.,0.,0.));
#1163=DIRECTION('center_axis',(0.,0.,-1.));
#1164=DIRECTION('ref_axis',(-0.707106781186547,0.707106781186547,0.));
#1165=DIRECTION('center_axis',(0.,0.,1.));
#1166=DIRECTION('ref_axis',(-0.707106781186547,0.707106781186547,0.));
#1167=DIRECTION('',(0.,0.,1.));
#1168=DIRECTION('center_axis',(0.,0.,-1.));
#1169=DIRECTION('ref_axis',(-0.707106781186547,0.707106781186547,0.));
#1170=DIRECTION('',(0.,0.,-1.));
#1171=DIRECTION('center_axis',(0.,1.,0.));
#1172=DIRECTION('ref_axis',(1.,0.,0.));
#1173=DIRECTION('',(-1.,0.,0.));
#1174=DIRECTION('',(0.,0.,1.));
#1175=DIRECTION('',(-1.,0.,0.));
#1176=DIRECTION('center_axis',(0.,0.,-1.));
#1177=DIRECTION('ref_axis',(-1.,0.,0.));
#1178=DIRECTION('',(0.,-1.,0.));
#1179=DIRECTION('center_axis',(0.,0.,-1.));
#1180=DIRECTION('ref_axis',(-0.723364639130454,-0.690466218475363,0.));
#1181=DIRECTION('center_axis',(0.,0.,-1.));
#1182=DIRECTION('ref_axis',(-1.,0.,0.));
#1183=DIRECTION('center_axis',(0.,0.,-1.));
#1184=DIRECTION('ref_axis',(-0.723364639130454,0.690466218475363,0.));
#1185=DIRECTION('',(0.,-1.,0.));
#1186=DIRECTION('center_axis',(0.,0.,-1.));
#1187=DIRECTION('ref_axis',(-0.707106781186547,-0.707106781186547,0.));
#1188=DIRECTION('',(1.,0.,0.));
#1189=DIRECTION('',(0.,-1.,0.));
#1190=DIRECTION('',(-1.,0.,0.));
#1191=DIRECTION('',(0.,1.,0.));
#1192=DIRECTION('center_axis',(0.,0.,-1.));
#1193=DIRECTION('ref_axis',(0.707106781186548,0.707106781186548,0.));
#1194=DIRECTION('center_axis',(0.,0.,-1.));
#1195=DIRECTION('ref_axis',(-1.,0.,0.));
#1196=DIRECTION('center_axis',(0.,0.,-1.));
#1197=DIRECTION('ref_axis',(-1.,0.,0.));
#1198=DIRECTION('center_axis',(0.,0.,1.));
#1199=DIRECTION('ref_axis',(-0.982603787943865,-0.185714285714288,0.));
#1200=DIRECTION('center_axis',(0.,0.,-1.));
#1201=DIRECTION('ref_axis',(4.0138427886232E-7,-0.99999999999992,0.));
#1202=DIRECTION('',(-1.,1.69218440776418E-16,0.));
#1203=DIRECTION('center_axis',(0.,0.,-1.));
#1204=DIRECTION('ref_axis',(-0.982603862486565,0.185713891312639,0.));
#1205=DIRECTION('center_axis',(0.,0.,1.));
#1206=DIRECTION('ref_axis',(-0.185714285714288,0.982603787943865,0.));
#1207=DIRECTION('center_axis',(0.,0.,-1.));
#1208=DIRECTION('ref_axis',(-0.99999999999992,-4.01384259618478E-7,0.));
#1209=DIRECTION('',(0.,1.,0.));
#1210=DIRECTION('center_axis',(0.,0.,-1.));
#1211=DIRECTION('ref_axis',(0.185713891312639,0.982603862486565,0.));
#1212=DIRECTION('center_axis',(0.,0.,1.));
#1213=DIRECTION('ref_axis',(0.982603787943865,0.185714285714287,0.));
#1214=DIRECTION('center_axis',(0.,0.,-1.));
#1215=DIRECTION('ref_axis',(-4.01384226311799E-7,0.99999999999992,0.));
#1216=DIRECTION('',(1.,-1.69218440776417E-16,0.));
#1217=DIRECTION('center_axis',(0.,0.,-1.));
#1218=DIRECTION('ref_axis',(0.982603862486565,-0.185713891312639,0.));
#1219=DIRECTION('center_axis',(0.,0.,1.));
#1220=DIRECTION('ref_axis',(0.185714285714287,-0.982603787943865,0.));
#1221=DIRECTION('center_axis',(0.,0.,-1.));
#1222=DIRECTION('ref_axis',(0.99999999999992,4.0138427886232E-7,0.));
#1223=DIRECTION('',(-1.69218440776417E-16,-1.,0.));
#1224=DIRECTION('center_axis',(0.,0.,-1.));
#1225=DIRECTION('ref_axis',(-0.185713891312618,-0.982603862486569,0.));
#1226=DIRECTION('center_axis',(0.,0.,-1.));
#1227=DIRECTION('ref_axis',(-1.,0.,0.));
#1228=DIRECTION('center_axis',(0.,0.,-1.));
#1229=DIRECTION('ref_axis',(-1.,0.,0.));
#1230=DIRECTION('center_axis',(0.,0.,-1.));
#1231=DIRECTION('ref_axis',(-1.,0.,0.));
#1232=DIRECTION('center_axis',(0.,0.,-1.));
#1233=DIRECTION('ref_axis',(-1.,0.,0.));
#1234=DIRECTION('center_axis',(0.,0.,1.));
#1235=DIRECTION('ref_axis',(-0.723364639130454,-0.690466218475363,0.));
#1236=DIRECTION('',(0.,0.,-1.));
#1237=DIRECTION('center_axis',(0.,0.,1.));
#1238=DIRECTION('ref_axis',(-0.723364639130454,-0.690466218475363,0.));
#1239=DIRECTION('',(0.,0.,1.));
#1240=DIRECTION('center_axis',(0.,0.,-1.));
#1241=DIRECTION('ref_axis',(1.,1.22464679914735E-16,0.));
#1242=DIRECTION('center_axis',(0.,0.,1.));
#1243=DIRECTION('ref_axis',(-1.,0.,0.));
#1244=DIRECTION('',(0.,0.,-1.));
#1245=DIRECTION('center_axis',(0.,0.,-1.));
#1246=DIRECTION('ref_axis',(-0.723364639130454,0.690466218475363,0.));
#1247=DIRECTION('center_axis',(0.,0.,1.));
#1248=DIRECTION('ref_axis',(-0.723364639130454,0.690466218475363,0.));
#1249=DIRECTION('',(0.,0.,1.));
#1250=DIRECTION('center_axis',(0.,0.,1.));
#1251=DIRECTION('ref_axis',(-0.707106781186547,-0.707106781186547,0.));
#1252=DIRECTION('',(0.,0.,-1.));
#1253=DIRECTION('center_axis',(0.,0.,1.));
#1254=DIRECTION('ref_axis',(-0.707106781186547,-0.707106781186547,0.));
#1255=DIRECTION('',(0.,0.,1.));
#1256=DIRECTION('center_axis',(0.,-1.,0.));
#1257=DIRECTION('ref_axis',(-1.,0.,0.));
#1258=DIRECTION('',(-1.,0.,0.));
#1259=DIRECTION('',(0.,0.,-1.));
#1260=DIRECTION('center_axis',(0.,0.,-1.));
#1261=DIRECTION('ref_axis',(0.707106781186548,0.707106781186548,0.));
#1262=DIRECTION('center_axis',(0.,0.,1.));
#1263=DIRECTION('ref_axis',(0.707106781186548,0.707106781186548,0.));
#1264=DIRECTION('',(0.,0.,-1.));
#1265=DIRECTION('center_axis',(-1.,0.,0.));
#1266=DIRECTION('ref_axis',(0.,1.,0.));
#1267=DIRECTION('',(0.,-1.,0.));
#1268=DIRECTION('center_axis',(0.,-1.71512449944288E-15,-1.));
#1269=DIRECTION('ref_axis',(0.707106781186548,-0.707106781186548,1.21277616413524E-15));
#1270=DIRECTION('center_axis',(0.,1.71512449944288E-15,1.));
#1271=DIRECTION('ref_axis',(0.707106781186548,-0.707106781186548,1.21277616413524E-15));
#1272=DIRECTION('',(0.,1.71512449944288E-15,1.));
#1273=DIRECTION('center_axis',(0.,-1.80697300937893E-15,-1.));
#1274=DIRECTION('ref_axis',(0.707106781186548,-0.707106781186548,1.2777228683529E-15));
#1275=DIRECTION('',(0.,-1.71512449944288E-15,-1.));
#1276=DIRECTION('center_axis',(0.,1.80697300937893E-15,1.));
#1277=DIRECTION('ref_axis',(0.,-1.,1.80697300937893E-15));
#1278=DIRECTION('',(0.,-1.,1.80697300937893E-15));
#1279=DIRECTION('',(-1.,0.,0.));
#1280=DIRECTION('',(0.,1.,-1.83758917935762E-15));
#1281=DIRECTION('center_axis',(0.,-1.80697300937893E-15,-1.));
#1282=DIRECTION('ref_axis',(-0.707106781186548,-0.707106781186548,1.2777228683529E-15));
#1283=DIRECTION('',(1.,0.,0.));
#1284=DIRECTION('center_axis',(0.,-1.80697300937893E-15,-1.));
#1285=DIRECTION('ref_axis',(1.,0.,0.));
#1286=DIRECTION('center_axis',(0.,-1.80697300937893E-15,-1.));
#1287=DIRECTION('ref_axis',(1.,0.,0.));
#1288=DIRECTION('center_axis',(1.,0.,0.));
#1289=DIRECTION('ref_axis',(0.,-1.,0.));
#1290=DIRECTION('',(0.,1.,-1.71512449944288E-15));
#1291=DIRECTION('center_axis',(1.,0.,0.));
#1292=DIRECTION('ref_axis',(0.,1.,-6.12323399573677E-17));
#1293=DIRECTION('',(0.,1.,0.));
#1294=DIRECTION('center_axis',(-1.,0.,0.));
#1295=DIRECTION('ref_axis',(0.,1.,-6.12323399573677E-17));
#1296=DIRECTION('center_axis',(1.,0.,0.));
#1297=DIRECTION('ref_axis',(0.,-1.,0.));
#1298=DIRECTION('',(0.,0.,-1.));
#1299=DIRECTION('center_axis',(1.,0.,0.));
#1300=DIRECTION('ref_axis',(0.,0.,1.));
#1301=DIRECTION('',(0.,-6.12323399573677E-17,-1.));
#1302=DIRECTION('',(0.,3.06161699786838E-17,1.));
#1303=DIRECTION('center_axis',(-1.,0.,0.));
#1304=DIRECTION('ref_axis',(0.,0.,1.));
#1305=DIRECTION('center_axis',(0.,-1.,1.71512449944288E-15));
#1306=DIRECTION('ref_axis',(-1.,0.,0.));
#1307=DIRECTION('',(0.,1.71512449944288E-15,1.));
#1308=DIRECTION('',(-1.,0.,0.));
#1309=DIRECTION('center_axis',(0.,-1.71512449944288E-15,-1.));
#1310=DIRECTION('ref_axis',(0.,1.,-1.71512449944288E-15));
#1311=DIRECTION('center_axis',(0.,1.71512449944288E-15,1.));
#1312=DIRECTION('ref_axis',(-0.707106781186548,-0.707106781186548,1.21277616413524E-15));
#1313=DIRECTION('',(0.,1.,-1.77635683940025E-15));
#1314=DIRECTION('',(1.,0.,0.));
#1315=DIRECTION('center_axis',(0.,1.71512449944288E-15,1.));
#1316=DIRECTION('ref_axis',(1.,0.,0.));
#1317=DIRECTION('center_axis',(0.,1.71512449944288E-15,1.));
#1318=DIRECTION('ref_axis',(1.,0.,0.));
#1319=DIRECTION('center_axis',(0.,0.,-1.));
#1320=DIRECTION('ref_axis',(-1.,0.,0.));
#1321=DIRECTION('',(0.,0.,-1.));
#1322=DIRECTION('center_axis',(0.,0.,1.));
#1323=DIRECTION('ref_axis',(-1.,0.,0.));
#1324=DIRECTION('center_axis',(0.,0.,-1.));
#1325=DIRECTION('ref_axis',(-1.,0.,0.));
#1326=DIRECTION('',(0.,0.,-1.));
#1327=DIRECTION('center_axis',(0.,0.,1.));
#1328=DIRECTION('ref_axis',(-1.,0.,0.));
#1329=DIRECTION('center_axis',(0.,0.,-1.));
#1330=DIRECTION('ref_axis',(-1.,0.,0.));
#1331=DIRECTION('',(0.,0.,-1.));
#1332=DIRECTION('center_axis',(0.,0.,1.));
#1333=DIRECTION('ref_axis',(-1.,0.,0.));
#1334=DIRECTION('center_axis',(0.,0.,-1.));
#1335=DIRECTION('ref_axis',(-1.,0.,0.));
#1336=DIRECTION('',(0.,0.,-1.));
#1337=DIRECTION('center_axis',(0.,0.,1.));
#1338=DIRECTION('ref_axis',(-1.,0.,0.));
#1339=DIRECTION('center_axis',(0.,0.,-1.));
#1340=DIRECTION('ref_axis',(-1.,0.,0.));
#1341=DIRECTION('',(0.,1.,0.));
#1342=DIRECTION('',(-1.,0.,0.));
#1343=DIRECTION('',(0.,1.,0.));
#1344=DIRECTION('',(0.,-1.,0.));
#1345=DIRECTION('center_axis',(0.,0.,-1.));
#1346=DIRECTION('ref_axis',(-0.982603787943865,-0.185714285714288,0.));
#1347=DIRECTION('center_axis',(-5.21959764263802E-15,6.29852191340215E-15,
1.));
#1348=DIRECTION('ref_axis',(0.99999999999992,-4.01384204847503E-7,5.92118749511428E-15));
#1349=DIRECTION('',(1.69218440776417E-16,1.,0.));
#1350=DIRECTION('center_axis',(5.21959764263824E-15,6.29852191340259E-15,
1.));
#1351=DIRECTION('ref_axis',(-0.18571389131257,0.982603862486578,-5.92118749511389E-15));
#1352=DIRECTION('center_axis',(0.,0.,-1.));
#1353=DIRECTION('ref_axis',(0.185714285714287,-0.982603787943865,0.));
#1354=DIRECTION('center_axis',(0.,0.,1.));
#1355=DIRECTION('ref_axis',(4.01384204847501E-7,0.99999999999992,0.));
#1356=DIRECTION('',(-1.,1.69218440776417E-16,0.));
#1357=DIRECTION('center_axis',(-6.29852191340214E-15,5.21959764263787E-15,
1.));
#1358=DIRECTION('ref_axis',(-0.982603862486569,-0.185713891312623,-5.92118749511416E-15));
#1359=DIRECTION('center_axis',(0.,0.,-1.));
#1360=DIRECTION('ref_axis',(0.982603787943865,0.185714285714287,0.));
#1361=DIRECTION('center_axis',(2.60979882131887E-15,-3.149260956701E-15,
1.));
#1362=DIRECTION('ref_axis',(-0.99999999999992,4.01384203367204E-7,2.96059374755712E-15));
#1363=DIRECTION('',(0.,-1.,0.));
#1364=DIRECTION('center_axis',(-5.21959764263794E-15,-6.29852191340244E-15,
1.));
#1365=DIRECTION('ref_axis',(0.185713891312625,-0.982603862486568,-5.92118749511416E-15));
#1366=DIRECTION('center_axis',(0.,0.,-1.));
#1367=DIRECTION('ref_axis',(-0.185714285714288,0.982603787943865,0.));
#1368=DIRECTION('center_axis',(-3.14926095670099E-15,-2.60979882131887E-15,
1.));
#1369=DIRECTION('ref_axis',(-4.01384202627056E-7,-0.99999999999992,-2.96059374755713E-15));
#1370=DIRECTION('',(1.,-1.69218440776418E-16,0.));
#1371=DIRECTION('center_axis',(3.14926095670129E-15,-2.60979882131911E-15,
1.));
#1372=DIRECTION('ref_axis',(0.982603862486578,0.185713891312571,-2.96059374755695E-15));
#1373=DIRECTION('center_axis',(0.,0.,1.));
#1374=DIRECTION('ref_axis',(-1.,0.,0.));
#1375=DIRECTION('center_axis',(0.,0.,1.));
#1376=DIRECTION('ref_axis',(-1.,0.,0.));
#1377=DIRECTION('center_axis',(0.,0.,-1.));
#1378=DIRECTION('ref_axis',(-1.,0.,0.));
#1379=DIRECTION('',(0.,0.,-1.));
#1380=DIRECTION('center_axis',(0.,0.,-1.));
#1381=DIRECTION('ref_axis',(-1.,0.,0.));
#1382=DIRECTION('',(0.,0.,-1.));
#1383=DIRECTION('center_axis',(-1.,0.,0.));
#1384=DIRECTION('ref_axis',(0.,1.,0.));
#1385=DIRECTION('center_axis',(0.,-1.71512449944288E-15,-1.));
#1386=DIRECTION('ref_axis',(-0.707106781186548,-0.707106781186548,1.21277616413524E-15));
#1387=DIRECTION('',(0.,-1.71512449944288E-15,-1.));
#1388=DIRECTION('center_axis',(-1.,0.,0.));
#1389=DIRECTION('ref_axis',(0.,1.,-1.77635683940025E-15));
#1390=DIRECTION('',(0.,-1.77635683940025E-15,-1.));
#1391=DIRECTION('center_axis',(0.,-2.7974123455122E-15,-1.));
#1392=DIRECTION('ref_axis',(1.,0.,0.));
#1393=DIRECTION('',(0.,-2.7974123455122E-15,-1.));
#1394=DIRECTION('center_axis',(0.,-2.7974123455122E-15,-1.));
#1395=DIRECTION('ref_axis',(1.,0.,0.));
#1396=DIRECTION('',(0.,-2.7974123455122E-15,-1.));
#1397=DIRECTION('center_axis',(1.,0.,0.));
#1398=DIRECTION('ref_axis',(0.,-1.,0.));
#1399=DIRECTION('center_axis',(0.,0.,-1.));
#1400=DIRECTION('ref_axis',(0.482860297483597,-0.87569739814279,0.));
#1401=DIRECTION('',(0.,0.,-1.));
#1402=DIRECTION('',(0.,0.,-1.));
#1403=DIRECTION('',(0.,0.,-1.));
#1404=DIRECTION('center_axis',(-1.,0.,0.));
#1405=DIRECTION('ref_axis',(0.,1.,0.));
#1406=DIRECTION('',(0.,0.,-1.));
#1407=DIRECTION('',(0.,0.,-1.));
#1408=DIRECTION('',(0.,0.,-1.));
#1409=DIRECTION('',(0.,0.,-1.));
#1410=DIRECTION('center_axis',(1.69218440776417E-16,1.,0.));
#1411=DIRECTION('ref_axis',(1.,-1.69218440776417E-16,0.));
#1412=DIRECTION('',(0.,0.,-1.));
#1413=DIRECTION('center_axis',(0.,0.,-1.));
#1414=DIRECTION('ref_axis',(0.875697398142789,0.482860297483599,0.));
#1415=DIRECTION('',(0.,0.,-1.));
#1416=DIRECTION('',(0.,0.,-1.));
#1417=DIRECTION('center_axis',(-1.69218440776418E-16,-1.,0.));
#1418=DIRECTION('ref_axis',(-1.,1.69218440776418E-16,0.));
#1419=DIRECTION('',(0.,0.,-1.));
#1420=DIRECTION('',(0.,0.,-1.));
#1421=DIRECTION('center_axis',(0.,0.,-1.));
#1422=DIRECTION('ref_axis',(-0.982603787943865,-0.185714285714288,0.));
#1423=DIRECTION('',(0.,0.,-1.));
#1424=DIRECTION('',(0.,0.,-1.));
#1425=DIRECTION('center_axis',(1.,-1.69218440776417E-16,0.));
#1426=DIRECTION('ref_axis',(-1.69218440776417E-16,-1.,0.));
#1427=DIRECTION('',(0.,0.,-1.));
#1428=DIRECTION('',(0.,0.,-1.));
#1429=DIRECTION('center_axis',(0.,0.,-1.));
#1430=DIRECTION('ref_axis',(0.185714285714287,-0.982603787943865,0.));
#1431=DIRECTION('center_axis',(-1.,0.,0.));
#1432=DIRECTION('ref_axis',(0.,1.,-6.12323399573677E-17));
#1433=DIRECTION('center_axis',(1.,0.,0.));
#1434=DIRECTION('ref_axis',(0.,-2.09805925913416E-15,-1.));
#1435=DIRECTION('',(-1.,0.,0.));
#1436=DIRECTION('center_axis',(-1.,0.,0.));
#1437=DIRECTION('ref_axis',(0.,0.,1.));
#1438=DIRECTION('center_axis',(1.,0.,0.));
#1439=DIRECTION('ref_axis',(0.,-1.3987061727561E-15,-1.));
#1440=DIRECTION('',(0.,-1.,0.));
#1441=DIRECTION('center_axis',(-1.,0.,0.));
#1442=DIRECTION('ref_axis',(0.,1.,-6.12323399573677E-17));
#1443=DIRECTION('',(1.,0.,0.));
#1444=DIRECTION('center_axis',(0.,1.,-3.06161699786838E-17));
#1445=DIRECTION('ref_axis',(-1.,0.,0.));
#1446=DIRECTION('',(0.,-1.34798246326316E-32,1.));
#1447=DIRECTION('',(1.,0.,0.));
#1448=DIRECTION('center_axis',(1.,0.,0.));
#1449=DIRECTION('ref_axis',(0.,0.,1.));
#1450=DIRECTION('',(-1.,0.,0.));
#1451=DIRECTION('center_axis',(1.,0.,0.));
#1452=DIRECTION('ref_axis',(0.,0.,1.));
#1453=DIRECTION('center_axis',(-1.,0.,0.));
#1454=DIRECTION('ref_axis',(0.,2.46519032881566E-32,-1.));
#1455=DIRECTION('',(0.,1.34798246326316E-32,-1.));
#1456=DIRECTION('',(0.,1.,-6.12323399573677E-17));
#1457=DIRECTION('center_axis',(-1.,0.,0.));
#1458=DIRECTION('ref_axis',(0.,0.,1.));
#1459=DIRECTION('',(0.,0.,-1.));
#1460=DIRECTION('center_axis',(-1.,0.,0.));
#1461=DIRECTION('ref_axis',(0.,-1.,0.));
#1462=DIRECTION('center_axis',(1.,0.,0.));
#1463=DIRECTION('ref_axis',(0.,0.,1.));
#1464=DIRECTION('center_axis',(0.,-1.,6.12323399573677E-17));
#1465=DIRECTION('ref_axis',(1.,0.,0.));
#1466=DIRECTION('center_axis',(-1.,0.,0.));
#1467=DIRECTION('ref_axis',(0.,1.,0.));
#1468=CARTESIAN_POINT('',(0.,0.,0.));
#1469=CARTESIAN_POINT('Origin',(-54.0066,24.5,-32.75));
#1470=CARTESIAN_POINT('',(-54.0066,27.5,-35.925));
#1471=CARTESIAN_POINT('',(-57.0066,24.5,-35.925));
#1472=CARTESIAN_POINT('Origin',(-54.0066,24.5,-35.925));
#1473=CARTESIAN_POINT('',(-57.0066,24.5,-32.75));
#1474=CARTESIAN_POINT('',(-57.0066,24.5,-32.75));
#1475=CARTESIAN_POINT('',(-54.0066,27.5,-32.75));
#1476=CARTESIAN_POINT('Origin',(-54.0066,24.5,-32.75));
#1477=CARTESIAN_POINT('',(-54.0066,27.5,-32.75));
#1478=CARTESIAN_POINT('Origin',(-25.,27.5,-32.75));
#1479=CARTESIAN_POINT('',(23.,27.5,-32.75));
#1480=CARTESIAN_POINT('',(-12.5,27.5,-32.75));
#1481=CARTESIAN_POINT('',(23.,27.5,-35.925));
#1482=CARTESIAN_POINT('',(23.,27.5,-32.75));
#1483=CARTESIAN_POINT('',(-12.5,27.5,-35.925));
#1484=CARTESIAN_POINT('Origin',(1.33226762955019E-14,-24.,-32.75));
#1485=CARTESIAN_POINT('',(-57.0066,21.3344453206712,-32.75));
#1486=CARTESIAN_POINT('',(-57.0066,-24.5,-32.75));
#1487=CARTESIAN_POINT('',(-54.146138406866,18.337692238916,-32.75));
#1488=CARTESIAN_POINT('Origin',(-54.0066,21.3344453206712,-32.75));
#1489=CARTESIAN_POINT('',(-54.146138406866,-18.337692238916,-32.75));
#1490=CARTESIAN_POINT('Origin',(-55.,4.44089209850063E-15,-32.75));
#1491=CARTESIAN_POINT('',(-57.0066,-21.3344453206712,-32.75));
#1492=CARTESIAN_POINT('Origin',(-54.0066,-21.3344453206712,-32.75));
#1493=CARTESIAN_POINT('',(-57.0066,-22.,-32.75));
#1494=CARTESIAN_POINT('',(-57.0066,-24.5,-32.75));
#1495=CARTESIAN_POINT('',(-54.0066,-25.,-32.75));
#1496=CARTESIAN_POINT('Origin',(-54.0066,-22.,-32.75));
#1497=CARTESIAN_POINT('',(-25.,-25.,-32.75));
#1498=CARTESIAN_POINT('',(-55.,-25.,-32.75));
#1499=CARTESIAN_POINT('',(-25.,-28.,-32.75));
#1500=CARTESIAN_POINT('',(-25.,25.,-32.75));
#1501=CARTESIAN_POINT('',(28.,-28.,-32.75));
#1502=CARTESIAN_POINT('',(25.,-28.,-32.75));
#1503=CARTESIAN_POINT('',(28.,22.5,-32.75));
#1504=CARTESIAN_POINT('',(28.,-22.,-32.75));
#1505=CARTESIAN_POINT('Origin',(23.,22.5,-32.75));
#1506=CARTESIAN_POINT('',(-50.75,21.5729064204303,-32.75));
#1507=CARTESIAN_POINT('Origin',(-52.,21.5729064204303,-32.75));
#1508=CARTESIAN_POINT('',(-50.75,-21.5729064204303,-32.75));
#1509=CARTESIAN_POINT('Origin',(-52.,-21.5729064204303,-32.75));
#1510=CARTESIAN_POINT('',(20.7428571428572,-16.0695848482245,-32.75));
#1511=CARTESIAN_POINT('',(16.0695848482246,-20.7428571428571,-32.75));
#1512=CARTESIAN_POINT('Origin',(20.,-20.,-32.75));
#1513=CARTESIAN_POINT('',(13.121773484393,-24.3,-32.75));
#1514=CARTESIAN_POINT('Origin',(13.1217722802398,-21.2999990021158,-32.75));
#1515=CARTESIAN_POINT('',(-13.1217734843929,-24.3,-32.75));
#1516=CARTESIAN_POINT('',(6.56088674219649,-24.3,-32.75));
#1517=CARTESIAN_POINT('',(-16.0695848482245,-20.7428571428571,-32.75));
#1518=CARTESIAN_POINT('Origin',(-13.1217722802399,-21.299999002116,-32.75));
#1519=CARTESIAN_POINT('',(-20.7428571428571,-16.0695848482245,-32.75));
#1520=CARTESIAN_POINT('Origin',(-20.,-20.,-32.75));
#1521=CARTESIAN_POINT('',(-24.3,-13.121773484393,-32.75));
#1522=CARTESIAN_POINT('Origin',(-21.2999990021159,-13.1217722802398,-32.75));
#1523=CARTESIAN_POINT('',(-24.3,13.1217734843929,-32.75));
#1524=CARTESIAN_POINT('',(-24.3,-18.5608867421965,-32.75));
#1525=CARTESIAN_POINT('',(-20.7428571428571,16.0695848482245,-32.75));
#1526=CARTESIAN_POINT('Origin',(-21.299999002116,13.1217722802399,-32.75));
#1527=CARTESIAN_POINT('',(-16.0695848482245,20.7428571428571,-32.75));
#1528=CARTESIAN_POINT('Origin',(-20.,20.,-32.75));
#1529=CARTESIAN_POINT('',(-13.121773484393,24.3,-32.75));
#1530=CARTESIAN_POINT('Origin',(-13.1217722802398,21.2999990021159,-32.75));
#1531=CARTESIAN_POINT('',(13.1217734843929,24.3,-32.75));
#1532=CARTESIAN_POINT('',(-6.56088674219646,24.3,-32.75));
#1533=CARTESIAN_POINT('',(16.0695848482245,20.7428571428571,-32.75));
#1534=CARTESIAN_POINT('Origin',(13.1217722802399,21.299999002116,-32.75));
#1535=CARTESIAN_POINT('',(20.7428571428571,16.0695848482246,-32.75));
#1536=CARTESIAN_POINT('Origin',(20.,20.,-32.75));
#1537=CARTESIAN_POINT('',(24.3,13.121773484393,-32.75));
#1538=CARTESIAN_POINT('Origin',(21.2999990021158,13.1217722802398,-32.75));
#1539=CARTESIAN_POINT('',(24.3,-13.1217734843929,-32.75));
#1540=CARTESIAN_POINT('',(24.3,-5.43911325780352,-32.75));
#1541=CARTESIAN_POINT('Origin',(21.299999002116,-13.1217722802399,-32.75));
#1542=CARTESIAN_POINT('',(21.65,20.,-32.75));
#1543=CARTESIAN_POINT('Origin',(20.,20.,-32.75));
#1544=CARTESIAN_POINT('',(-18.35,-20.,-32.75));
#1545=CARTESIAN_POINT('Origin',(-20.,-20.,-32.75));
#1546=CARTESIAN_POINT('',(21.65,-20.,-32.75));
#1547=CARTESIAN_POINT('Origin',(20.,-20.,-32.75));
#1548=CARTESIAN_POINT('',(-18.35,20.,-32.75));
#1549=CARTESIAN_POINT('Origin',(-20.,20.,-32.75));
#1550=CARTESIAN_POINT('Origin',(-54.0066,21.3344453206712,-32.75));
#1551=CARTESIAN_POINT('',(-57.0066,21.3344453206712,-35.925));
#1552=CARTESIAN_POINT('',(-57.0066,21.3344453206712,-32.75));
#1553=CARTESIAN_POINT('',(-54.146138406866,18.337692238916,-35.925));
#1554=CARTESIAN_POINT('Origin',(-54.0066,21.3344453206712,-35.925));
#1555=CARTESIAN_POINT('',(-54.146138406866,18.337692238916,-32.75));
#1556=CARTESIAN_POINT('Origin',(-55.,4.44089209850063E-15,-32.75));
#1557=CARTESIAN_POINT('',(-54.146138406866,-18.337692238916,-35.925));
#1558=CARTESIAN_POINT('Origin',(-55.,4.44089209850063E-15,-35.925));
#1559=CARTESIAN_POINT('',(-54.146138406866,-18.337692238916,-32.75));
#1560=CARTESIAN_POINT('Origin',(-54.0066,-21.3344453206712,-32.75));
#1561=CARTESIAN_POINT('',(-57.0066,-21.3344453206712,-35.925));
#1562=CARTESIAN_POINT('Origin',(-54.0066,-21.3344453206712,-35.925));
#1563=CARTESIAN_POINT('',(-57.0066,-21.3344453206712,-32.75));
#1564=CARTESIAN_POINT('Origin',(-54.0066,-22.,-32.75));
#1565=CARTESIAN_POINT('',(-57.0066,-22.,-35.925));
#1566=CARTESIAN_POINT('',(-57.0066,-22.,-32.75));
#1567=CARTESIAN_POINT('',(-54.0066,-25.,-35.925));
#1568=CARTESIAN_POINT('Origin',(-54.0066,-22.,-35.925));
#1569=CARTESIAN_POINT('',(-54.0066,-25.,-32.75));
#1570=CARTESIAN_POINT('Origin',(-25.,-25.,-32.75));
#1571=CARTESIAN_POINT('',(-25.,-25.,-35.925));
#1572=CARTESIAN_POINT('',(-55.,-25.,-35.925));
#1573=CARTESIAN_POINT('',(-25.,-25.,-32.75));
#1574=CARTESIAN_POINT('Origin',(23.,22.5,-32.75));
#1575=CARTESIAN_POINT('',(28.,22.5,-35.925));
#1576=CARTESIAN_POINT('Origin',(23.,22.5,-35.925));
#1577=CARTESIAN_POINT('',(28.,22.5,-32.75));
#1578=CARTESIAN_POINT('Origin',(-57.0066,-25.,-32.75));
#1579=CARTESIAN_POINT('',(-57.0066,-24.5,-35.925));
#1580=CARTESIAN_POINT('Origin',(23.,-50.836,-57.75));
#1581=CARTESIAN_POINT('',(23.,-55.836,-85.925));
#1582=CARTESIAN_POINT('',(28.,-50.836,-85.925));
#1583=CARTESIAN_POINT('Origin',(23.,-50.836,-85.925));
#1584=CARTESIAN_POINT('',(28.,-50.836,-82.75));
#1585=CARTESIAN_POINT('',(28.,-50.836,-57.75));
#1586=CARTESIAN_POINT('',(23.,-55.836,-82.75));
#1587=CARTESIAN_POINT('Origin',(23.,-50.836,-82.75));
#1588=CARTESIAN_POINT('',(23.,-55.836,-57.75));
#1589=CARTESIAN_POINT('Origin',(1.10297748017119E-14,-43.0896595969469,
-82.75));
#1590=CARTESIAN_POINT('',(28.,-37.525,-82.75));
#1591=CARTESIAN_POINT('',(28.,-31.5448297984735,-82.75));
#1592=CARTESIAN_POINT('',(-25.,-37.525,-82.75));
#1593=CARTESIAN_POINT('',(5.51488740085593E-15,-37.525,-82.75));
#1594=CARTESIAN_POINT('',(-25.,-50.836,-82.75));
#1595=CARTESIAN_POINT('',(-25.,-23.1616383877875,-82.75));
#1596=CARTESIAN_POINT('',(-20.,-55.836,-82.75));
#1597=CARTESIAN_POINT('Origin',(-20.,-50.836,-82.75));
#1598=CARTESIAN_POINT('',(-25.,-55.836,-82.75));
#1599=CARTESIAN_POINT('',(10.4,-45.8360000000001,-82.75));
#1600=CARTESIAN_POINT('Origin',(13.,-45.8360000000001,-82.75));
#1601=CARTESIAN_POINT('',(-15.6,-45.8360000000001,-82.75));
#1602=CARTESIAN_POINT('Origin',(-13.,-45.8360000000001,-82.75));
#1603=CARTESIAN_POINT('Origin',(28.,-20.,-32.75));
#1604=CARTESIAN_POINT('',(28.,-37.525,-85.925));
#1605=CARTESIAN_POINT('',(28.,-31.5448297984735,-85.925));
#1606=CARTESIAN_POINT('',(28.,-31.175,-79.575));
#1607=CARTESIAN_POINT('Origin',(28.,-37.525,-79.575));
#1608=CARTESIAN_POINT('',(28.,-34.35,-79.575));
#1609=CARTESIAN_POINT('',(28.,-32.7625,-79.575));
#1610=CARTESIAN_POINT('Origin',(28.,-37.525,-79.575));
#1611=CARTESIAN_POINT('Origin',(28.,-20.,-32.75));
#1612=CARTESIAN_POINT('',(28.,-28.,-35.925));
#1613=CARTESIAN_POINT('',(28.,-28.,-32.75));
#1614=CARTESIAN_POINT('',(28.,-34.35,-39.1));
#1615=CARTESIAN_POINT('Origin',(28.,-28.,-39.1));
#1616=CARTESIAN_POINT('',(28.,-34.35,-45.0420797984734));
#1617=CARTESIAN_POINT('',(28.,-31.175,-39.1));
#1618=CARTESIAN_POINT('',(28.,-31.175,-45.0420797984734));
#1619=CARTESIAN_POINT('Origin',(28.,-28.,-39.1));
#1620=CARTESIAN_POINT('Origin',(25.,-55.836,-82.75));
#1621=CARTESIAN_POINT('',(-20.,-55.836,-85.925));
#1622=CARTESIAN_POINT('',(-20.,-55.836,-82.75));
#1623=CARTESIAN_POINT('',(-25.,-55.836,-85.925));
#1624=CARTESIAN_POINT('Origin',(8.88178419700125E-15,-43.0896595969469,
-85.925));
#1625=CARTESIAN_POINT('',(-25.,-50.836,-85.925));
#1626=CARTESIAN_POINT('Origin',(-20.,-50.836,-85.925));
#1627=CARTESIAN_POINT('',(-25.,-37.525,-85.925));
#1628=CARTESIAN_POINT('',(-25.,-37.525,-85.925));
#1629=CARTESIAN_POINT('',(4.44089209850063E-15,-37.525,-85.925));
#1630=CARTESIAN_POINT('',(10.4,-45.8360000000001,-85.925));
#1631=CARTESIAN_POINT('Origin',(13.,-45.8360000000001,-85.925));
#1632=CARTESIAN_POINT('',(-15.6,-45.8360000000001,-85.925));
#1633=CARTESIAN_POINT('Origin',(-13.,-45.8360000000001,-85.925));
#1634=CARTESIAN_POINT('Origin',(-20.,20.,-32.75));
#1635=CARTESIAN_POINT('',(-18.35,20.,-35.925));
#1636=CARTESIAN_POINT('',(-18.35,20.,-32.75));
#1637=CARTESIAN_POINT('Origin',(-20.,20.,-35.925));
#1638=CARTESIAN_POINT('Origin',(20.,-20.,-32.75));
#1639=CARTESIAN_POINT('',(21.65,-20.,-35.925));
#1640=CARTESIAN_POINT('',(21.65,-20.,-32.75));
#1641=CARTESIAN_POINT('Origin',(20.,-20.,-35.925));
#1642=CARTESIAN_POINT('Origin',(-20.,-20.,-32.75));
#1643=CARTESIAN_POINT('',(-18.35,-20.,-35.925));
#1644=CARTESIAN_POINT('',(-18.35,-20.,-32.75));
#1645=CARTESIAN_POINT('Origin',(-20.,-20.,-35.925));
#1646=CARTESIAN_POINT('Origin',(20.,20.,-32.75));
#1647=CARTESIAN_POINT('',(21.65,20.,-35.925));
#1648=CARTESIAN_POINT('',(21.65,20.,-32.75));
#1649=CARTESIAN_POINT('Origin',(20.,20.,-35.925));
#1650=CARTESIAN_POINT('Origin',(1.33226762955019E-14,-24.,-35.925));
#1651=CARTESIAN_POINT('',(28.,-22.,-35.925));
#1652=CARTESIAN_POINT('',(-25.,-28.,-35.925));
#1653=CARTESIAN_POINT('',(25.,-28.,-35.925));
#1654=CARTESIAN_POINT('',(-25.,25.,-35.925));
#1655=CARTESIAN_POINT('',(-57.0066,-24.5,-35.925));
#1656=CARTESIAN_POINT('',(16.0695848482246,-20.7428571428571,-35.925));
#1657=CARTESIAN_POINT('',(20.7428571428572,-16.0695848482245,-35.925));
#1658=CARTESIAN_POINT('Origin',(20.,-20.,-35.925));
#1659=CARTESIAN_POINT('',(24.3,-13.1217734843929,-35.925));
#1660=CARTESIAN_POINT('Origin',(21.299999002116,-13.1217722802399,-35.925));
#1661=CARTESIAN_POINT('',(24.3,13.121773484393,-35.925));
#1662=CARTESIAN_POINT('',(24.3,-5.43911325780352,-35.925));
#1663=CARTESIAN_POINT('',(20.7428571428571,16.0695848482246,-35.925));
#1664=CARTESIAN_POINT('Origin',(21.2999990021158,13.1217722802398,-35.925));
#1665=CARTESIAN_POINT('',(16.0695848482245,20.7428571428571,-35.925));
#1666=CARTESIAN_POINT('Origin',(20.,20.,-35.925));
#1667=CARTESIAN_POINT('',(13.1217734843929,24.3,-35.925));
#1668=CARTESIAN_POINT('Origin',(13.1217722802399,21.299999002116,-35.925));
#1669=CARTESIAN_POINT('',(-13.121773484393,24.3,-35.925));
#1670=CARTESIAN_POINT('',(-6.56088674219646,24.3,-35.925));
#1671=CARTESIAN_POINT('',(-16.0695848482245,20.7428571428571,-35.925));
#1672=CARTESIAN_POINT('Origin',(-13.1217722802398,21.2999990021159,-35.925));
#1673=CARTESIAN_POINT('',(-20.7428571428571,16.0695848482245,-35.925));
#1674=CARTESIAN_POINT('Origin',(-20.,20.,-35.925));
#1675=CARTESIAN_POINT('',(-24.3,13.1217734843929,-35.925));
#1676=CARTESIAN_POINT('Origin',(-21.299999002116,13.1217722802399,-35.925));
#1677=CARTESIAN_POINT('',(-24.3,-13.121773484393,-35.925));
#1678=CARTESIAN_POINT('',(-24.3,-18.5608867421965,-35.925));
#1679=CARTESIAN_POINT('',(-20.7428571428571,-16.0695848482245,-35.925));
#1680=CARTESIAN_POINT('Origin',(-21.299999002116,-13.1217722802398,-35.925));
#1681=CARTESIAN_POINT('',(-16.0695848482245,-20.7428571428571,-35.925));
#1682=CARTESIAN_POINT('Origin',(-20.,-20.,-35.925));
#1683=CARTESIAN_POINT('',(-13.1217734843929,-24.3,-35.925));
#1684=CARTESIAN_POINT('Origin',(-13.1217722802399,-21.299999002116,-35.925));
#1685=CARTESIAN_POINT('',(13.121773484393,-24.3,-35.925));
#1686=CARTESIAN_POINT('',(6.56088674219649,-24.3,-35.925));
#1687=CARTESIAN_POINT('Origin',(13.1217722802398,-21.2999990021158,-35.925));
#1688=CARTESIAN_POINT('',(-50.75,21.5729064204303,-35.925));
#1689=CARTESIAN_POINT('Origin',(-52.,21.5729064204303,-35.925));
#1690=CARTESIAN_POINT('',(-50.75,-21.5729064204303,-35.925));
#1691=CARTESIAN_POINT('Origin',(-52.,-21.5729064204303,-35.925));
#1692=CARTESIAN_POINT('Origin',(-52.,-21.5729064204303,-32.75));
#1693=CARTESIAN_POINT('',(-50.75,-21.5729064204303,-32.75));
#1694=CARTESIAN_POINT('Origin',(-52.,21.5729064204303,-32.75));
#1695=CARTESIAN_POINT('',(-50.75,21.5729064204303,-32.75));
#1696=CARTESIAN_POINT('Origin',(-57.0066,-25.,-32.75));
#1697=CARTESIAN_POINT('Origin',(-20.,-50.836,-82.75));
#1698=CARTESIAN_POINT('',(-25.,-50.836,-82.75));
#1699=CARTESIAN_POINT('Origin',(-25.,-55.836,-82.75));
#1700=CARTESIAN_POINT('',(-25.,-37.525,-83.4485));
#1701=CARTESIAN_POINT('Origin',(-13.,-45.8360000000001,-82.75));
#1702=CARTESIAN_POINT('',(-15.6,-45.8360000000001,-82.75));
#1703=CARTESIAN_POINT('Origin',(13.,-45.8360000000001,-82.75));
#1704=CARTESIAN_POINT('',(10.4,-45.8360000000001,-82.75));
#1705=CARTESIAN_POINT('Origin',(28.,-20.,-32.75));
#1706=CARTESIAN_POINT('Origin',(-20.,20.,-32.75));
#1707=CARTESIAN_POINT('',(-16.0695848482245,20.7428571428571,-32.75));
#1708=CARTESIAN_POINT('',(-20.7428571428571,16.0695848482245,-32.75));
#1709=CARTESIAN_POINT('Ctrl Pts',(-24.3,13.1217734843929,-32.75));
#1710=CARTESIAN_POINT('Ctrl Pts',(-24.3,13.1217734843929,-43.55));
#1711=CARTESIAN_POINT('Ctrl Pts',(-24.3,13.5124179577799,-32.75));
#1712=CARTESIAN_POINT('Ctrl Pts',(-24.3,13.5124179577799,-43.55));
#1713=CARTESIAN_POINT('Ctrl Pts',(-24.2236984477061,13.8993276570835,-32.75));
#1714=CARTESIAN_POINT('Ctrl Pts',(-24.2236984477061,13.8993276570835,-43.55));
#1715=CARTESIAN_POINT('Ctrl Pts',(-23.9270818096964,14.6221215339301,-32.75));
#1716=CARTESIAN_POINT('Ctrl Pts',(-23.9270818096964,14.6221215339301,-43.55));
#1717=CARTESIAN_POINT('Ctrl Pts',(-23.7096025407086,14.9510954080572,-32.75));
#1718=CARTESIAN_POINT('Ctrl Pts',(-23.7096025407086,14.9510954080572,-43.55));
#1719=CARTESIAN_POINT('Ctrl Pts',(-23.1607846146148,15.5071631218737,-32.75));
#1720=CARTESIAN_POINT('Ctrl Pts',(-23.1607846146148,15.5071631218737,-43.55));
#1721=CARTESIAN_POINT('Ctrl Pts',(-22.8346929560113,15.7289406511387,-32.75));
#1722=CARTESIAN_POINT('Ctrl Pts',(-22.8346929560113,15.7289406511387,-43.55));
#1723=CARTESIAN_POINT('Ctrl Pts',(-22.2036672511147,15.9976263574727,-32.75));
#1724=CARTESIAN_POINT('Ctrl Pts',(-22.2036672511147,15.9976263574727,-43.55));
#1725=CARTESIAN_POINT('Ctrl Pts',(-21.9164727867897,16.0725539830892,-32.75));
#1726=CARTESIAN_POINT('Ctrl Pts',(-21.9164727867897,16.0725539830892,-43.55));
#1727=CARTESIAN_POINT('Ctrl Pts',(-21.329500397684,16.1361181851322,-32.75));
#1728=CARTESIAN_POINT('Ctrl Pts',(-21.329500397684,16.1361181851322,-43.55));
#1729=CARTESIAN_POINT('Ctrl Pts',(-21.0329237920911,16.1244080854571,-32.75));
#1730=CARTESIAN_POINT('Ctrl Pts',(-21.0329237920911,16.1244080854571,-43.55));
#1731=CARTESIAN_POINT('Ctrl Pts',(-20.7428571428571,16.0695848482245,-32.75));
#1732=CARTESIAN_POINT('Ctrl Pts',(-20.7428571428571,16.0695848482245,-43.55));
#1733=CARTESIAN_POINT('',(-24.3,13.1217734843929,-32.75));
#1734=CARTESIAN_POINT('Origin',(-24.3,-13.121773484393,-32.75));
#1735=CARTESIAN_POINT('',(-24.3,-13.121773484393,-32.75));
#1736=CARTESIAN_POINT('Ctrl Pts',(-20.7428571428571,-16.0695848482245,-32.75));
#1737=CARTESIAN_POINT('Ctrl Pts',(-20.7428571428571,-16.0695848482245,-43.55));
#1738=CARTESIAN_POINT('Ctrl Pts',(-21.1267058821465,-16.1421331075678,-32.75));
#1739=CARTESIAN_POINT('Ctrl Pts',(-21.1267058821465,-16.1421331075678,-43.55));
#1740=CARTESIAN_POINT('Ctrl Pts',(-21.5210551065576,-16.1390135717,-32.75));
#1741=CARTESIAN_POINT('Ctrl Pts',(-21.5210551065576,-16.1390135717,-43.55));
#1742=CARTESIAN_POINT('Ctrl Pts',(-22.2863610549086,-15.9817900881817,-32.75));
#1743=CARTESIAN_POINT('Ctrl Pts',(-22.2863610549086,-15.9817900881817,-43.55));
#1744=CARTESIAN_POINT('Ctrl Pts',(-22.6500010368582,-15.8291892827271,-32.75));
#1745=CARTESIAN_POINT('Ctrl Pts',(-22.6500010368582,-15.8291892827271,-43.55));
#1746=CARTESIAN_POINT('Ctrl Pts',(-23.2983186079393,-15.3931884279361,-32.75));
#1747=CARTESIAN_POINT('Ctrl Pts',(-23.2983186079393,-15.3931884279361,-43.55));
#1748=CARTESIAN_POINT('Ctrl Pts',(-23.5767979277309,-15.1139567844103,-32.75));
#1749=CARTESIAN_POINT('Ctrl Pts',(-23.5767979277309,-15.1139567844103,-43.55));
#1750=CARTESIAN_POINT('Ctrl Pts',(-23.9580000085933,-14.5438073105224,-32.75));
#1751=CARTESIAN_POINT('Ctrl Pts',(-23.9580000085933,-14.5438073105224,-43.55));
#1752=CARTESIAN_POINT('Ctrl Pts',(-24.0849602921489,-14.2755240724719,-32.75));
#1753=CARTESIAN_POINT('Ctrl Pts',(-24.0849602921489,-14.2755240724719,-43.55));
#1754=CARTESIAN_POINT('Ctrl Pts',(-24.2564278758308,-13.7105675598975,-32.75));
#1755=CARTESIAN_POINT('Ctrl Pts',(-24.2564278758308,-13.7105675598975,-43.55));
#1756=CARTESIAN_POINT('Ctrl Pts',(-24.3,-13.4169755310296,-32.75));
#1757=CARTESIAN_POINT('Ctrl Pts',(-24.3,-13.4169755310296,-43.55));
#1758=CARTESIAN_POINT('Ctrl Pts',(-24.3,-13.121773484393,-32.75));
#1759=CARTESIAN_POINT('Ctrl Pts',(-24.3,-13.121773484393,-43.55));
#1760=CARTESIAN_POINT('',(-20.7428571428571,-16.0695848482245,-32.75));
#1761=CARTESIAN_POINT('Ctrl Pts',(13.1217734843929,24.3,-32.75));
#1762=CARTESIAN_POINT('Ctrl Pts',(13.1217734843929,24.3,-43.55));
#1763=CARTESIAN_POINT('Ctrl Pts',(13.5124179577799,24.3,-32.75));
#1764=CARTESIAN_POINT('Ctrl Pts',(13.5124179577799,24.3,-43.55));
#1765=CARTESIAN_POINT('Ctrl Pts',(13.8993276570835,24.2236984477061,-32.75));
#1766=CARTESIAN_POINT('Ctrl Pts',(13.8993276570835,24.2236984477061,-43.55));
#1767=CARTESIAN_POINT('Ctrl Pts',(14.6221215339301,23.9270818096964,-32.75));
#1768=CARTESIAN_POINT('Ctrl Pts',(14.6221215339301,23.9270818096964,-43.55));
#1769=CARTESIAN_POINT('Ctrl Pts',(14.9510954080572,23.7096025407086,-32.75));
#1770=CARTESIAN_POINT('Ctrl Pts',(14.9510954080572,23.7096025407086,-43.55));
#1771=CARTESIAN_POINT('Ctrl Pts',(15.5071631218737,23.1607846146148,-32.75));
#1772=CARTESIAN_POINT('Ctrl Pts',(15.5071631218737,23.1607846146148,-43.55));
#1773=CARTESIAN_POINT('Ctrl Pts',(15.7289406511387,22.8346929560113,-32.75));
#1774=CARTESIAN_POINT('Ctrl Pts',(15.7289406511387,22.8346929560113,-43.55));
#1775=CARTESIAN_POINT('Ctrl Pts',(15.9976263574727,22.2036672511147,-32.75));
#1776=CARTESIAN_POINT('Ctrl Pts',(15.9976263574727,22.2036672511147,-43.55));
#1777=CARTESIAN_POINT('Ctrl Pts',(16.0725539830892,21.9164727867897,-32.75));
#1778=CARTESIAN_POINT('Ctrl Pts',(16.0725539830892,21.9164727867897,-43.55));
#1779=CARTESIAN_POINT('Ctrl Pts',(16.1361181851322,21.329500397684,-32.75));
#1780=CARTESIAN_POINT('Ctrl Pts',(16.1361181851322,21.329500397684,-43.55));
#1781=CARTESIAN_POINT('Ctrl Pts',(16.1244080854571,21.0329237920911,-32.75));
#1782=CARTESIAN_POINT('Ctrl Pts',(16.1244080854571,21.0329237920911,-43.55));
#1783=CARTESIAN_POINT('Ctrl Pts',(16.0695848482245,20.7428571428571,-32.75));
#1784=CARTESIAN_POINT('Ctrl Pts',(16.0695848482245,20.7428571428571,-43.55));
#1785=CARTESIAN_POINT('',(16.0695848482245,20.7428571428571,-32.75));
#1786=CARTESIAN_POINT('',(13.1217734843929,24.3,-32.75));
#1787=CARTESIAN_POINT('Origin',(-13.121773484393,24.3,-32.75));
#1788=CARTESIAN_POINT('',(-13.121773484393,24.3,-32.75));
#1789=CARTESIAN_POINT('Ctrl Pts',(-16.0695848482245,20.7428571428571,-32.75));
#1790=CARTESIAN_POINT('Ctrl Pts',(-16.0695848482245,20.7428571428571,-43.55));
#1791=CARTESIAN_POINT('Ctrl Pts',(-16.1421331075678,21.1267058821465,-32.75));
#1792=CARTESIAN_POINT('Ctrl Pts',(-16.1421331075678,21.1267058821465,-43.55));
#1793=CARTESIAN_POINT('Ctrl Pts',(-16.1390135717,21.5210551065576,-32.75));
#1794=CARTESIAN_POINT('Ctrl Pts',(-16.1390135717,21.5210551065576,-43.55));
#1795=CARTESIAN_POINT('Ctrl Pts',(-15.9817900881817,22.2863610549086,-32.75));
#1796=CARTESIAN_POINT('Ctrl Pts',(-15.9817900881817,22.2863610549086,-43.55));
#1797=CARTESIAN_POINT('Ctrl Pts',(-15.8291892827271,22.6500010368582,-32.75));
#1798=CARTESIAN_POINT('Ctrl Pts',(-15.8291892827271,22.6500010368582,-43.55));
#1799=CARTESIAN_POINT('Ctrl Pts',(-15.3931884279361,23.2983186079393,-32.75));
#1800=CARTESIAN_POINT('Ctrl Pts',(-15.3931884279361,23.2983186079393,-43.55));
#1801=CARTESIAN_POINT('Ctrl Pts',(-15.1139567844103,23.5767979277309,-32.75));
#1802=CARTESIAN_POINT('Ctrl Pts',(-15.1139567844103,23.5767979277309,-43.55));
#1803=CARTESIAN_POINT('Ctrl Pts',(-14.5438073105224,23.9580000085933,-32.75));
#1804=CARTESIAN_POINT('Ctrl Pts',(-14.5438073105224,23.9580000085933,-43.55));
#1805=CARTESIAN_POINT('Ctrl Pts',(-14.2755240724719,24.0849602921489,-32.75));
#1806=CARTESIAN_POINT('Ctrl Pts',(-14.2755240724719,24.0849602921489,-43.55));
#1807=CARTESIAN_POINT('Ctrl Pts',(-13.7105675598975,24.2564278758308,-32.75));
#1808=CARTESIAN_POINT('Ctrl Pts',(-13.7105675598975,24.2564278758308,-43.55));
#1809=CARTESIAN_POINT('Ctrl Pts',(-13.4169755310296,24.3,-32.75));
#1810=CARTESIAN_POINT('Ctrl Pts',(-13.4169755310296,24.3,-43.55));
#1811=CARTESIAN_POINT('Ctrl Pts',(-13.1217734843929,24.3,-32.75));
#1812=CARTESIAN_POINT('Ctrl Pts',(-13.1217734843929,24.3,-43.55));
#1813=CARTESIAN_POINT('Origin',(-20.,-20.,-32.75));
#1814=CARTESIAN_POINT('',(-16.0695848482245,-20.7428571428571,-32.75));
#1815=CARTESIAN_POINT('Ctrl Pts',(-13.1217734843929,-24.3,-32.75));
#1816=CARTESIAN_POINT('Ctrl Pts',(-13.1217734843929,-24.3,-43.55));
#1817=CARTESIAN_POINT('Ctrl Pts',(-13.5124179577799,-24.3,-32.75));
#1818=CARTESIAN_POINT('Ctrl Pts',(-13.5124179577799,-24.3,-43.55));
#1819=CARTESIAN_POINT('Ctrl Pts',(-13.8993276570835,-24.2236984477061,-32.75));
#1820=CARTESIAN_POINT('Ctrl Pts',(-13.8993276570835,-24.2236984477061,-43.55));
#1821=CARTESIAN_POINT('Ctrl Pts',(-14.62212153393,-23.9270818096964,-32.75));
#1822=CARTESIAN_POINT('Ctrl Pts',(-14.62212153393,-23.9270818096964,-43.55));
#1823=CARTESIAN_POINT('Ctrl Pts',(-14.9510954080572,-23.7096025407086,-32.75));
#1824=CARTESIAN_POINT('Ctrl Pts',(-14.9510954080572,-23.7096025407086,-43.55));
#1825=CARTESIAN_POINT('Ctrl Pts',(-15.5071631218737,-23.1607846146148,-32.75));
#1826=CARTESIAN_POINT('Ctrl Pts',(-15.5071631218737,-23.1607846146148,-43.55));
#1827=CARTESIAN_POINT('Ctrl Pts',(-15.7289406511387,-22.8346929560113,-32.75));
#1828=CARTESIAN_POINT('Ctrl Pts',(-15.7289406511387,-22.8346929560113,-43.55));
#1829=CARTESIAN_POINT('Ctrl Pts',(-15.9976263574727,-22.2036672511147,-32.75));
#1830=CARTESIAN_POINT('Ctrl Pts',(-15.9976263574727,-22.2036672511147,-43.55));
#1831=CARTESIAN_POINT('Ctrl Pts',(-16.0725539830892,-21.9164727867897,-32.75));
#1832=CARTESIAN_POINT('Ctrl Pts',(-16.0725539830892,-21.9164727867897,-43.55));
#1833=CARTESIAN_POINT('Ctrl Pts',(-16.1361181851322,-21.329500397684,-32.75));
#1834=CARTESIAN_POINT('Ctrl Pts',(-16.1361181851322,-21.329500397684,-43.55));
#1835=CARTESIAN_POINT('Ctrl Pts',(-16.1244080854571,-21.0329237920911,-32.75));
#1836=CARTESIAN_POINT('Ctrl Pts',(-16.1244080854571,-21.0329237920911,-43.55));
#1837=CARTESIAN_POINT('Ctrl Pts',(-16.0695848482245,-20.7428571428571,-32.75));
#1838=CARTESIAN_POINT('Ctrl Pts',(-16.0695848482245,-20.7428571428571,-43.55));
#1839=CARTESIAN_POINT('',(-13.1217734843929,-24.3,-32.75));
#1840=CARTESIAN_POINT('Origin',(13.121773484393,-24.3,-32.75));
#1841=CARTESIAN_POINT('',(13.121773484393,-24.3,-32.75));
#1842=CARTESIAN_POINT('Ctrl Pts',(16.0695848482246,-20.7428571428571,-32.75));
#1843=CARTESIAN_POINT('Ctrl Pts',(16.0695848482246,-20.7428571428571,-43.55));
#1844=CARTESIAN_POINT('Ctrl Pts',(16.1421331075678,-21.1267058821465,-32.75));
#1845=CARTESIAN_POINT('Ctrl Pts',(16.1421331075678,-21.1267058821465,-43.55));
#1846=CARTESIAN_POINT('Ctrl Pts',(16.1390135717,-21.5210551065576,-32.75));
#1847=CARTESIAN_POINT('Ctrl Pts',(16.1390135717,-21.5210551065576,-43.55));
#1848=CARTESIAN_POINT('Ctrl Pts',(15.9817900881817,-22.2863610549086,-32.75));
#1849=CARTESIAN_POINT('Ctrl Pts',(15.9817900881817,-22.2863610549086,-43.55));
#1850=CARTESIAN_POINT('Ctrl Pts',(15.8291892827271,-22.6500010368582,-32.75));
#1851=CARTESIAN_POINT('Ctrl Pts',(15.8291892827271,-22.6500010368582,-43.55));
#1852=CARTESIAN_POINT('Ctrl Pts',(15.3931884279361,-23.2983186079393,-32.75));
#1853=CARTESIAN_POINT('Ctrl Pts',(15.3931884279361,-23.2983186079393,-43.55));
#1854=CARTESIAN_POINT('Ctrl Pts',(15.1139567844103,-23.5767979277309,-32.75));
#1855=CARTESIAN_POINT('Ctrl Pts',(15.1139567844103,-23.5767979277309,-43.55));
#1856=CARTESIAN_POINT('Ctrl Pts',(14.5438073105224,-23.9580000085933,-32.75));
#1857=CARTESIAN_POINT('Ctrl Pts',(14.5438073105224,-23.9580000085933,-43.55));
#1858=CARTESIAN_POINT('Ctrl Pts',(14.2755240724719,-24.0849602921489,-32.75));
#1859=CARTESIAN_POINT('Ctrl Pts',(14.2755240724719,-24.0849602921489,-43.55));
#1860=CARTESIAN_POINT('Ctrl Pts',(13.7105675598975,-24.2564278758308,-32.75));
#1861=CARTESIAN_POINT('Ctrl Pts',(13.7105675598975,-24.2564278758308,-43.55));
#1862=CARTESIAN_POINT('Ctrl Pts',(13.4169755310296,-24.3,-32.75));
#1863=CARTESIAN_POINT('Ctrl Pts',(13.4169755310296,-24.3,-43.55));
#1864=CARTESIAN_POINT('Ctrl Pts',(13.121773484393,-24.3,-32.75));
#1865=CARTESIAN_POINT('Ctrl Pts',(13.121773484393,-24.3,-43.55));
#1866=CARTESIAN_POINT('',(16.0695848482246,-20.7428571428571,-32.75));
#1867=CARTESIAN_POINT('Origin',(20.,-20.,-32.75));
#1868=CARTESIAN_POINT('',(20.7428571428572,-16.0695848482245,-32.75));
#1869=CARTESIAN_POINT('Ctrl Pts',(24.3,-13.1217734843929,-32.75));
#1870=CARTESIAN_POINT('Ctrl Pts',(24.3,-13.1217734843929,-43.55));
#1871=CARTESIAN_POINT('Ctrl Pts',(24.3,-13.5124179577799,-32.75));
#1872=CARTESIAN_POINT('Ctrl Pts',(24.3,-13.5124179577799,-43.55));
#1873=CARTESIAN_POINT('Ctrl Pts',(24.2236984477061,-13.8993276570835,-32.75));
#1874=CARTESIAN_POINT('Ctrl Pts',(24.2236984477061,-13.8993276570835,-43.55));
#1875=CARTESIAN_POINT('Ctrl Pts',(23.9270818096964,-14.6221215339301,-32.75));
#1876=CARTESIAN_POINT('Ctrl Pts',(23.9270818096964,-14.6221215339301,-43.55));
#1877=CARTESIAN_POINT('Ctrl Pts',(23.7096025407086,-14.9510954080572,-32.75));
#1878=CARTESIAN_POINT('Ctrl Pts',(23.7096025407086,-14.9510954080572,-43.55));
#1879=CARTESIAN_POINT('Ctrl Pts',(23.1607846146148,-15.5071631218737,-32.75));
#1880=CARTESIAN_POINT('Ctrl Pts',(23.1607846146148,-15.5071631218737,-43.55));
#1881=CARTESIAN_POINT('Ctrl Pts',(22.8346929560113,-15.7289406511387,-32.75));
#1882=CARTESIAN_POINT('Ctrl Pts',(22.8346929560113,-15.7289406511387,-43.55));
#1883=CARTESIAN_POINT('Ctrl Pts',(22.2036672511147,-15.9976263574727,-32.75));
#1884=CARTESIAN_POINT('Ctrl Pts',(22.2036672511147,-15.9976263574727,-43.55));
#1885=CARTESIAN_POINT('Ctrl Pts',(21.9164727867897,-16.0725539830892,-32.75));
#1886=CARTESIAN_POINT('Ctrl Pts',(21.9164727867897,-16.0725539830892,-43.55));
#1887=CARTESIAN_POINT('Ctrl Pts',(21.329500397684,-16.1361181851322,-32.75));
#1888=CARTESIAN_POINT('Ctrl Pts',(21.329500397684,-16.1361181851322,-43.55));
#1889=CARTESIAN_POINT('Ctrl Pts',(21.0329237920911,-16.1244080854571,-32.75));
#1890=CARTESIAN_POINT('Ctrl Pts',(21.0329237920911,-16.1244080854571,-43.55));
#1891=CARTESIAN_POINT('Ctrl Pts',(20.7428571428572,-16.0695848482245,-32.75));
#1892=CARTESIAN_POINT('Ctrl Pts',(20.7428571428572,-16.0695848482245,-43.55));
#1893=CARTESIAN_POINT('',(24.3,-13.1217734843929,-32.75));
#1894=CARTESIAN_POINT('Origin',(24.3,13.121773484393,-32.75));
#1895=CARTESIAN_POINT('',(24.3,13.121773484393,-32.75));
#1896=CARTESIAN_POINT('Ctrl Pts',(20.7428571428571,16.0695848482246,-32.75));
#1897=CARTESIAN_POINT('Ctrl Pts',(20.7428571428571,16.0695848482246,-43.55));
#1898=CARTESIAN_POINT('Ctrl Pts',(21.1267058821465,16.1421331075678,-32.75));
#1899=CARTESIAN_POINT('Ctrl Pts',(21.1267058821465,16.1421331075678,-43.55));
#1900=CARTESIAN_POINT('Ctrl Pts',(21.5210551065576,16.1390135717,-32.75));
#1901=CARTESIAN_POINT('Ctrl Pts',(21.5210551065576,16.1390135717,-43.55));
#1902=CARTESIAN_POINT('Ctrl Pts',(22.2863610549086,15.9817900881817,-32.75));
#1903=CARTESIAN_POINT('Ctrl Pts',(22.2863610549086,15.9817900881817,-43.55));
#1904=CARTESIAN_POINT('Ctrl Pts',(22.6500010368582,15.8291892827271,-32.75));
#1905=CARTESIAN_POINT('Ctrl Pts',(22.6500010368582,15.8291892827271,-43.55));
#1906=CARTESIAN_POINT('Ctrl Pts',(23.2983186079393,15.3931884279361,-32.75));
#1907=CARTESIAN_POINT('Ctrl Pts',(23.2983186079393,15.3931884279361,-43.55));
#1908=CARTESIAN_POINT('Ctrl Pts',(23.5767979277309,15.1139567844103,-32.75));
#1909=CARTESIAN_POINT('Ctrl Pts',(23.5767979277309,15.1139567844103,-43.55));
#1910=CARTESIAN_POINT('Ctrl Pts',(23.9580000085933,14.5438073105224,-32.75));
#1911=CARTESIAN_POINT('Ctrl Pts',(23.9580000085933,14.5438073105224,-43.55));
#1912=CARTESIAN_POINT('Ctrl Pts',(24.0849602921489,14.2755240724719,-32.75));
#1913=CARTESIAN_POINT('Ctrl Pts',(24.0849602921489,14.2755240724719,-43.55));
#1914=CARTESIAN_POINT('Ctrl Pts',(24.2564278758308,13.7105675598975,-32.75));
#1915=CARTESIAN_POINT('Ctrl Pts',(24.2564278758308,13.7105675598975,-43.55));
#1916=CARTESIAN_POINT('Ctrl Pts',(24.3,13.4169755310296,-32.75));
#1917=CARTESIAN_POINT('Ctrl Pts',(24.3,13.4169755310296,-43.55));
#1918=CARTESIAN_POINT('Ctrl Pts',(24.3,13.121773484393,-32.75));
#1919=CARTESIAN_POINT('Ctrl Pts',(24.3,13.121773484393,-43.55));
#1920=CARTESIAN_POINT('',(20.7428571428571,16.0695848482246,-32.75));
#1921=CARTESIAN_POINT('Origin',(20.,20.,-32.75));
#1922=CARTESIAN_POINT('Origin',(0.,-37.525,-79.575));
#1923=CARTESIAN_POINT('',(-25.,-31.175,-79.575));
#1924=CARTESIAN_POINT('Origin',(-25.,-37.525,-79.575));
#1925=CARTESIAN_POINT('',(-12.5,-31.175,-79.575));
#1926=CARTESIAN_POINT('Origin',(-25.,-37.525,-82.75));
#1927=CARTESIAN_POINT('',(-25.,-34.35,-79.575));
#1928=CARTESIAN_POINT('Origin',(-25.,-37.525,-79.575));
#1929=CARTESIAN_POINT('',(-25.,-32.7625,-79.575));
#1930=CARTESIAN_POINT('Origin',(0.,-37.525,-79.575));
#1931=CARTESIAN_POINT('',(-12.5,-34.35,-79.575));
#1932=CARTESIAN_POINT('Origin',(1.3212788073146E-14,-31.175,-57.3341595969469));
#1933=CARTESIAN_POINT('',(-25.,-31.175,-39.1));
#1934=CARTESIAN_POINT('',(-25.,-31.175,-24.7366383877875));
#1935=CARTESIAN_POINT('',(6.60639403657301E-15,-31.175,-39.1));
#1936=CARTESIAN_POINT('Origin',(0.,-28.,-39.1));
#1937=CARTESIAN_POINT('',(-25.,-34.35,-39.1));
#1938=CARTESIAN_POINT('',(6.66133814775094E-15,-34.35,-39.1));
#1939=CARTESIAN_POINT('Origin',(-25.,-28.,-39.1));
#1940=CARTESIAN_POINT('Origin',(-25.,-31.175,-31.9183191938937));
#1941=CARTESIAN_POINT('',(-25.,-34.35,-24.7366383877875));
#1942=CARTESIAN_POINT('',(-25.,-31.8735,-39.1));
#1943=CARTESIAN_POINT('Origin',(-25.,-34.35,-39.1));
#1944=CARTESIAN_POINT('',(-25.,-28.,-32.75));
#1945=CARTESIAN_POINT('Origin',(-25.,-28.,-39.1));
#1946=CARTESIAN_POINT('Origin',(0.,-28.,-39.1));
#1947=CARTESIAN_POINT('Origin',(1.33226762955019E-14,-34.35,-57.3341595969469));
#1948=CARTESIAN_POINT('Origin',(-25.,-28.,-32.75));
#1949=UNCERTAINTY_MEASURE_WITH_UNIT(LENGTH_MEASURE(0.01),#1953,
'DISTANCE_ACCURACY_VALUE',
'Maximum model space distance between geometric entities at asserted c
onnectivities');
#1950=UNCERTAINTY_MEASURE_WITH_UNIT(LENGTH_MEASURE(0.01),#1953,
'DISTANCE_ACCURACY_VALUE',
'Maximum model space distance between geometric entities at asserted c
onnectivities');
#1951=(
GEOMETRIC_REPRESENTATION_CONTEXT(3)
GLOBAL_UNCERTAINTY_ASSIGNED_CONTEXT((#1949))
GLOBAL_UNIT_ASSIGNED_CONTEXT((#1953,#1955,#1956))
REPRESENTATION_CONTEXT('','3D')
);
#1952=(
GEOMETRIC_REPRESENTATION_CONTEXT(3)
GLOBAL_UNCERTAINTY_ASSIGNED_CONTEXT((#1950))
GLOBAL_UNIT_ASSIGNED_CONTEXT((#1953,#1955,#1956))
REPRESENTATION_CONTEXT('','3D')
);
#1953=(
LENGTH_UNIT()
NAMED_UNIT(*)
SI_UNIT(.MILLI.,.METRE.)
);
#1954=(
LENGTH_UNIT()
NAMED_UNIT(*)
SI_UNIT($,.METRE.)
);
#1955=(
NAMED_UNIT(*)
PLANE_ANGLE_UNIT()
SI_UNIT($,.RADIAN.)
);
#1956=(
NAMED_UNIT(*)
SI_UNIT($,.STERADIAN.)
SOLID_ANGLE_UNIT()
);
#1957=SHAPE_DEFINITION_REPRESENTATION(#1958,#1959);
#1958=PRODUCT_DEFINITION_SHAPE('',$,#1961);
#1959=SHAPE_REPRESENTATION('',(#1049),#1951);
#1960=PRODUCT_DEFINITION_CONTEXT('part definition',#1965,'design');
#1961=PRODUCT_DEFINITION('BRACKET_LASER_CUT','BRACKET_LASER_CUT',#1962,
#1960);
#1962=PRODUCT_DEFINITION_FORMATION('',$,#1967);
#1963=PRODUCT_RELATED_PRODUCT_CATEGORY('BRACKET_LASER_CUT',
'BRACKET_LASER_CUT',(#1967));
#1964=APPLICATION_PROTOCOL_DEFINITION('international standard',
'automotive_design',2009,#1965);
#1965=APPLICATION_CONTEXT(
'Core Data for Automotive Mechanical Design Process');
#1966=PRODUCT_CONTEXT('part definition',#1965,'mechanical');
#1967=PRODUCT('BRACKET_LASER_CUT','BRACKET_LASER_CUT',$,(#1966));
#1968=PRESENTATION_STYLE_ASSIGNMENT((#1970));
#1969=PRESENTATION_STYLE_ASSIGNMENT((#1971));
#1970=SURFACE_STYLE_USAGE(.BOTH.,#1972);
#1971=SURFACE_STYLE_USAGE(.BOTH.,#1973);
#1972=SURFACE_SIDE_STYLE('',(#1974));
#1973=SURFACE_SIDE_STYLE('',(#1975));
#1974=SURFACE_STYLE_FILL_AREA(#1976);
#1975=SURFACE_STYLE_FILL_AREA(#1977);
#1976=FILL_AREA_STYLE('Steel - Satin',(#1978));
#1977=FILL_AREA_STYLE('Opaque(245,245,246)',(#1979));
#1978=FILL_AREA_STYLE_COLOUR('Steel - Satin',#1980);
#1979=FILL_AREA_STYLE_COLOUR('Opaque(245,245,246)',#1981);
#1980=COLOUR_RGB('Steel - Satin',0.627450980392157,0.627450980392157,0.627450980392157);
#1981=COLOUR_RGB('Opaque(245,245,246)',0.96078431372549,0.96078431372549,
0.964705882352941);
ENDSEC;
END-ISO-10303-21;
